<svg width="192" height="37" viewBox="0 0 192 37" fill="none" xmlns="http://www.w3.org/2000/svg">
<path d="M4.50977 10.87C4.82643 10.8667 5.1131 10.8083 5.36977 10.695C5.62977 10.5817 5.85143 10.4283 6.03477 10.235C6.2181 10.0417 6.35977 9.81667 6.45977 9.56C6.55977 9.30333 6.60977 9.02833 6.60977 8.735C6.60977 8.445 6.55977 8.17167 6.45977 7.915C6.35977 7.65833 6.2181 7.435 6.03477 7.245C5.85143 7.05167 5.62977 6.89833 5.36977 6.785C5.1131 6.67167 4.82643 6.61167 4.50977 6.605V10.87ZM3.58977 6.605C3.2731 6.60833 2.98477 6.66667 2.72477 6.78C2.4681 6.89333 2.2481 7.04667 2.06477 7.24C1.88143 7.43333 1.73977 7.65833 1.63977 7.915C1.53977 8.17167 1.48977 8.445 1.48977 8.735C1.48977 9.02833 1.53977 9.30333 1.63977 9.56C1.73977 9.81667 1.88143 10.0417 2.06477 10.235C2.2481 10.4283 2.4681 10.5817 2.72477 10.695C2.98477 10.8083 3.2731 10.8667 3.58977 10.87V6.605ZM4.50977 5.85C4.96643 5.86 5.3831 5.94333 5.75977 6.1C6.13643 6.25333 6.4581 6.46167 6.72477 6.725C6.99477 6.985 7.2031 7.28833 7.34977 7.635C7.49977 7.97833 7.57477 8.345 7.57477 8.735C7.57477 9.12833 7.49977 9.49833 7.34977 9.845C7.2031 10.1917 6.99477 10.4967 6.72477 10.76C6.4581 11.02 6.13643 11.2283 5.75977 11.385C5.3831 11.5417 4.96643 11.625 4.50977 11.635V12.5H3.58977V11.635C3.12977 11.625 2.71143 11.5417 2.33477 11.385C1.9581 11.2283 1.63477 11.02 1.36477 10.76C1.0981 10.4967 0.889766 10.1917 0.739766 9.845C0.593099 9.49833 0.519766 9.12833 0.519766 8.735C0.519766 8.345 0.594766 7.97833 0.744766 7.635C0.894766 7.28833 1.10477 6.985 1.37477 6.725C1.64477 6.46167 1.9681 6.25333 2.34477 6.1C2.72143 5.94333 3.13643 5.86 3.58977 5.85V5.01H4.50977V5.85ZM14.677 5.335V12.5H13.707V7.41C13.707 7.26667 13.7104 7.11833 13.717 6.965C13.7237 6.80833 13.7387 6.64333 13.762 6.47C13.7054 6.62 13.6454 6.76 13.582 6.89C13.5187 7.02 13.4537 7.13333 13.387 7.23L10.027 12.195C9.98036 12.2717 9.92036 12.3417 9.84703 12.405C9.7737 12.4683 9.6887 12.5 9.59203 12.5H8.87203V5.335H9.84203V10.43C9.84203 10.5733 9.8387 10.7233 9.83203 10.88C9.82536 11.0333 9.81036 11.1983 9.78703 11.375C9.8437 11.2217 9.9037 11.08 9.96703 10.95C10.0337 10.82 10.0987 10.705 10.162 10.605L13.522 5.64C13.5687 5.56333 13.6287 5.49333 13.702 5.43C13.7754 5.36667 13.8604 5.335 13.957 5.335H14.677ZM16.0938 6.005C16.3638 5.765 16.6771 5.58167 17.0338 5.455C17.3904 5.32833 17.7954 5.265 18.2488 5.265C18.6188 5.265 18.9504 5.31 19.2438 5.4C19.5404 5.49 19.7921 5.61667 19.9988 5.78C20.2054 5.94333 20.3638 6.13667 20.4738 6.36C20.5871 6.58333 20.6437 6.82833 20.6437 7.095C20.6437 7.455 20.5538 7.77167 20.3738 8.045C20.1971 8.31833 19.9471 8.53 19.6238 8.68C19.8071 8.75667 19.9738 8.85167 20.1238 8.965C20.2738 9.075 20.4021 9.2 20.5088 9.34C20.6188 9.48 20.7021 9.63333 20.7587 9.8C20.8187 9.96667 20.8487 10.1417 20.8487 10.325C20.8487 10.6383 20.7904 10.9317 20.6738 11.205C20.5571 11.4783 20.3871 11.7167 20.1638 11.92C19.9438 12.12 19.6721 12.2783 19.3488 12.395C19.0254 12.5117 18.6571 12.57 18.2438 12.57C17.7304 12.57 17.2688 12.4867 16.8588 12.32C16.4488 12.15 16.0971 11.9217 15.8038 11.635L16.0838 11.175C16.1104 11.1383 16.1438 11.1083 16.1838 11.085C16.2238 11.0583 16.2671 11.045 16.3138 11.045C16.3838 11.045 16.4671 11.0833 16.5638 11.16C16.6604 11.2333 16.7838 11.315 16.9338 11.405C17.0838 11.495 17.2654 11.5783 17.4788 11.655C17.6954 11.7283 17.9588 11.765 18.2688 11.765C18.5321 11.765 18.7671 11.7333 18.9738 11.67C19.1838 11.6067 19.3588 11.515 19.4988 11.395C19.6421 11.275 19.7504 11.1283 19.8238 10.955C19.9004 10.7817 19.9388 10.5867 19.9388 10.37C19.9388 10.1833 19.9021 10.0117 19.8288 9.855C19.7588 9.69833 19.6554 9.565 19.5188 9.455C19.3821 9.34167 19.2154 9.255 19.0188 9.195C18.8221 9.13167 18.6004 9.1 18.3538 9.1H17.3738V8.305H18.3138C18.5171 8.305 18.7054 8.28 18.8788 8.23C19.0554 8.18 19.2054 8.10667 19.3288 8.01C19.4554 7.91333 19.5538 7.795 19.6238 7.655C19.6971 7.515 19.7338 7.355 19.7338 7.175C19.7338 7.01167 19.7004 6.86167 19.6338 6.725C19.5671 6.58833 19.4704 6.47167 19.3438 6.375C19.2171 6.275 19.0621 6.19833 18.8788 6.145C18.6954 6.09167 18.4871 6.065 18.2538 6.065C17.9838 6.065 17.7538 6.09333 17.5638 6.15C17.3738 6.20667 17.2138 6.27 17.0838 6.34C16.9538 6.40667 16.8471 6.46833 16.7638 6.525C16.6838 6.58167 16.6138 6.61 16.5538 6.61C16.5004 6.61 16.4571 6.59833 16.4238 6.575C16.3904 6.55167 16.3588 6.51333 16.3287 6.46L16.0938 6.005ZM28.0657 5.335V12.5H27.0957V7.41C27.0957 7.26667 27.099 7.11833 27.1057 6.965C27.1124 6.80833 27.1274 6.64333 27.1507 6.47C27.094 6.62 27.034 6.76 26.9707 6.89C26.9074 7.02 26.8424 7.13333 26.7757 7.23L23.4157 12.195C23.369 12.2717 23.309 12.3417 23.2357 12.405C23.1624 12.4683 23.0774 12.5 22.9807 12.5H22.2607V5.335H23.2307V10.43C23.2307 10.5733 23.2274 10.7233 23.2207 10.88C23.214 11.0333 23.199 11.1983 23.1757 11.375C23.2324 11.2217 23.2924 11.08 23.3557 10.95C23.4224 10.82 23.4874 10.705 23.5507 10.605L26.9107 5.64C26.9574 5.56333 27.0174 5.49333 27.0907 5.43C27.164 5.36667 27.249 5.335 27.3457 5.335H28.0657ZM35.6174 12.5H34.7474C34.6508 12.5 34.5674 12.475 34.4974 12.425C34.4308 12.3717 34.3674 12.295 34.3074 12.195L32.4124 9.57C32.3258 9.44 32.2324 9.35 32.1324 9.3C32.0324 9.24667 31.8958 9.22 31.7224 9.22H30.8624V12.5H29.8974V5.335H30.8624V8.475H31.6074C31.7574 8.475 31.8841 8.45167 31.9874 8.405C32.0941 8.35833 32.1991 8.26667 32.3024 8.13L34.1774 5.61C34.2274 5.53 34.2874 5.465 34.3574 5.415C34.4308 5.36167 34.5158 5.335 34.6124 5.335H35.4274L33.2624 8.28C33.0991 8.51 32.8891 8.66833 32.6324 8.755C32.8091 8.80167 32.9574 8.87667 33.0774 8.98C33.2008 9.08 33.3174 9.22 33.4274 9.4L35.6174 12.5ZM42.8944 8.92C42.8944 9.45667 42.8094 9.95 42.6394 10.4C42.4694 10.8467 42.2294 11.2317 41.9194 11.555C41.6094 11.8783 41.236 12.13 40.7994 12.31C40.366 12.4867 39.886 12.575 39.3594 12.575C38.8327 12.575 38.3527 12.4867 37.9194 12.31C37.486 12.13 37.1144 11.8783 36.8044 11.555C36.4944 11.2317 36.2544 10.8467 36.0844 10.4C35.9144 9.95 35.8294 9.45667 35.8294 8.92C35.8294 8.38333 35.9144 7.89167 36.0844 7.445C36.2544 6.995 36.4944 6.60833 36.8044 6.285C37.1144 5.95833 37.486 5.705 37.9194 5.525C38.3527 5.345 38.8327 5.255 39.3594 5.255C39.886 5.255 40.366 5.345 40.7994 5.525C41.236 5.705 41.6094 5.95833 41.9194 6.285C42.2294 6.60833 42.4694 6.995 42.6394 7.445C42.8094 7.89167 42.8944 8.38333 42.8944 8.92ZM41.8994 8.92C41.8994 8.48 41.8394 8.085 41.7194 7.735C41.5994 7.385 41.4294 7.09 41.2094 6.85C40.9894 6.60667 40.7227 6.42 40.4094 6.29C40.096 6.16 39.746 6.095 39.3594 6.095C38.976 6.095 38.6277 6.16 38.3144 6.29C38.001 6.42 37.7327 6.60667 37.5094 6.85C37.2894 7.09 37.1194 7.385 36.9994 7.735C36.8794 8.085 36.8194 8.48 36.8194 8.92C36.8194 9.36 36.8794 9.755 36.9994 10.105C37.1194 10.4517 37.2894 10.7467 37.5094 10.99C37.7327 11.23 38.001 11.415 38.3144 11.545C38.6277 11.6717 38.976 11.735 39.3594 11.735C39.746 11.735 40.096 11.6717 40.4094 11.545C40.7227 11.415 40.9894 11.23 41.2094 10.99C41.4294 10.7467 41.5994 10.4517 41.7194 10.105C41.8394 9.755 41.8994 9.36 41.8994 8.92ZM43.9922 9.125H46.4622V9.88H43.9922V9.125ZM55.4481 5.335V12.5H54.5981V7.235C54.5981 7.165 54.5998 7.09 54.6031 7.01C54.6098 6.93 54.6165 6.84833 54.6231 6.765L52.1631 11.245C52.0865 11.395 51.9698 11.47 51.8131 11.47H51.6731C51.5165 11.47 51.3998 11.395 51.3231 11.245L48.8131 6.745C48.8331 6.92167 48.8431 7.085 48.8431 7.235V12.5H47.9931V5.335H48.7081C48.7948 5.335 48.8615 5.34333 48.9081 5.36C48.9548 5.37667 48.9998 5.42333 49.0431 5.5L51.5181 9.91C51.5581 9.99 51.5965 10.0733 51.6331 10.16C51.6731 10.2467 51.7098 10.335 51.7431 10.425C51.7765 10.335 51.8115 10.2467 51.8481 10.16C51.8848 10.07 51.9248 9.985 51.9681 9.905L54.3981 5.5C54.4381 5.42333 54.4815 5.37667 54.5281 5.36C54.5781 5.34333 54.6465 5.335 54.7331 5.335H55.4481ZM61.0752 9.84L59.9502 6.925C59.9169 6.83833 59.8819 6.73833 59.8452 6.625C59.8086 6.50833 59.7736 6.385 59.7402 6.255C59.6702 6.525 59.5986 6.75 59.5252 6.93L58.4002 9.84H61.0752ZM63.0952 12.5H62.3452C62.2586 12.5 62.1886 12.4783 62.1352 12.435C62.0819 12.3917 62.0419 12.3367 62.0152 12.27L61.3452 10.54H58.1302L57.4602 12.27C57.4402 12.33 57.4019 12.3833 57.3452 12.43C57.2886 12.4767 57.2169 12.5 57.1302 12.5H56.3852L59.2502 5.335H60.2302L63.0952 12.5ZM68.1799 6.15H65.8599V12.5H64.8949V6.15H62.5699V5.335H68.1799V6.15ZM73.6631 11.71L73.6581 12.5H69.2431V5.335H73.6581V6.125H70.2131V8.505H73.0031V9.265H70.2131V11.71H73.6631ZM82.4696 5.335V12.5H81.6196V7.235C81.6196 7.165 81.6213 7.09 81.6246 7.01C81.6313 6.93 81.6379 6.84833 81.6446 6.765L79.1846 11.245C79.1079 11.395 78.9913 11.47 78.8346 11.47H78.6946C78.5379 11.47 78.4213 11.395 78.3446 11.245L75.8346 6.745C75.8546 6.92167 75.8646 7.085 75.8646 7.235V12.5H75.0146V5.335H75.7296C75.8163 5.335 75.8829 5.34333 75.9296 5.36C75.9763 5.37667 76.0213 5.42333 76.0646 5.5L78.5396 9.91C78.5796 9.99 78.6179 10.0733 78.6546 10.16C78.6946 10.2467 78.7313 10.335 78.7646 10.425C78.7979 10.335 78.8329 10.2467 78.8696 10.16C78.9063 10.07 78.9463 9.985 78.9896 9.905L81.4196 5.5C81.4596 5.42333 81.5029 5.37667 81.5496 5.36C81.5996 5.34333 81.6679 5.335 81.7546 5.335H82.4696ZM88.0967 9.84L86.9717 6.925C86.9384 6.83833 86.9034 6.73833 86.8667 6.625C86.8301 6.50833 86.7951 6.385 86.7617 6.255C86.6917 6.525 86.6201 6.75 86.5467 6.93L85.4217 9.84H88.0967ZM90.1167 12.5H89.3667C89.2801 12.5 89.2101 12.4783 89.1567 12.435C89.1034 12.3917 89.0634 12.3367 89.0367 12.27L88.3667 10.54H85.1517L84.4817 12.27C84.4617 12.33 84.4234 12.3833 84.3667 12.43C84.3101 12.4767 84.2384 12.5 84.1517 12.5H83.4067L86.2717 5.335H87.2517L90.1167 12.5ZM95.2014 6.15H92.8814V12.5H91.9164V6.15H89.5914V5.335H95.2014V6.15ZM102.07 5.335V12.5H101.1V7.41C101.1 7.26667 101.103 7.11833 101.11 6.965C101.116 6.80833 101.131 6.64333 101.155 6.47C101.098 6.62 101.038 6.76 100.975 6.89C100.911 7.02 100.846 7.13333 100.78 7.23L97.4196 12.195C97.3729 12.2717 97.3129 12.3417 97.2396 12.405C97.1663 12.4683 97.0813 12.5 96.9846 12.5H96.2646V5.335H97.2346V10.43C97.2346 10.5733 97.2313 10.7233 97.2246 10.88C97.2179 11.0333 97.2029 11.1983 97.1796 11.375C97.2363 11.2217 97.2963 11.08 97.3596 10.95C97.4263 10.82 97.4913 10.705 97.5546 10.605L100.915 5.64C100.961 5.56333 101.021 5.49333 101.095 5.43C101.168 5.36667 101.253 5.335 101.35 5.335H102.07ZM108.686 5.335V12.5H107.711V9.4C107.331 9.5 106.961 9.58 106.601 9.64C106.241 9.69667 105.903 9.72333 105.586 9.72C105.273 9.71667 104.985 9.67833 104.721 9.605C104.458 9.53167 104.231 9.415 104.041 9.255C103.855 9.09167 103.708 8.88167 103.601 8.625C103.498 8.365 103.446 8.04833 103.446 7.675V5.335H104.416V7.68C104.416 8.01 104.483 8.27667 104.616 8.48C104.75 8.68333 104.953 8.825 105.226 8.905C105.5 8.985 105.841 9.00667 106.251 8.97C106.665 8.93333 107.151 8.84167 107.711 8.695V5.335H108.686ZM114.933 11.71L114.928 12.5H110.513V5.335H114.928V6.125H111.483V8.505H114.273V9.265H111.483V11.71H114.933ZM121.158 11.02C121.211 11.02 121.258 11.0417 121.298 11.085L121.683 11.5C121.39 11.84 121.033 12.105 120.613 12.295C120.196 12.485 119.691 12.58 119.098 12.58C118.585 12.58 118.118 12.4917 117.698 12.315C117.278 12.135 116.92 11.885 116.623 11.565C116.326 11.2417 116.096 10.855 115.933 10.405C115.77 9.955 115.688 9.46 115.688 8.92C115.688 8.38 115.773 7.885 115.943 7.435C116.113 6.985 116.351 6.59833 116.658 6.275C116.968 5.95167 117.338 5.70167 117.768 5.525C118.198 5.345 118.673 5.255 119.193 5.255C119.703 5.255 120.153 5.33667 120.543 5.5C120.933 5.66333 121.276 5.885 121.573 6.165L121.253 6.61C121.233 6.64333 121.206 6.67167 121.173 6.695C121.143 6.715 121.101 6.725 121.048 6.725C120.988 6.725 120.915 6.69333 120.828 6.63C120.741 6.56333 120.628 6.49 120.488 6.41C120.348 6.33 120.173 6.25833 119.963 6.195C119.753 6.12833 119.495 6.095 119.188 6.095C118.818 6.095 118.48 6.16 118.173 6.29C117.866 6.41667 117.601 6.60167 117.378 6.845C117.158 7.08833 116.986 7.385 116.863 7.735C116.74 8.085 116.678 8.48 116.678 8.92C116.678 9.36667 116.741 9.765 116.868 10.115C116.998 10.465 117.173 10.7617 117.393 11.005C117.616 11.245 117.878 11.4283 118.178 11.555C118.481 11.6817 118.808 11.745 119.158 11.745C119.371 11.745 119.563 11.7333 119.733 11.71C119.906 11.6833 120.065 11.6433 120.208 11.59C120.355 11.5367 120.49 11.47 120.613 11.39C120.74 11.3067 120.865 11.2083 120.988 11.095C121.045 11.045 121.101 11.02 121.158 11.02ZM128.528 12.5H127.658C127.561 12.5 127.478 12.475 127.408 12.425C127.341 12.3717 127.278 12.295 127.218 12.195L125.323 9.57C125.236 9.44 125.143 9.35 125.043 9.3C124.943 9.24667 124.806 9.22 124.633 9.22H123.773V12.5H122.808V5.335H123.773V8.475H124.518C124.668 8.475 124.794 8.45167 124.898 8.405C125.004 8.35833 125.109 8.26667 125.213 8.13L127.088 5.61C127.138 5.53 127.198 5.465 127.268 5.415C127.341 5.36167 127.426 5.335 127.523 5.335H128.338L126.173 8.28C126.009 8.51 125.799 8.66833 125.543 8.755C125.719 8.80167 125.868 8.87667 125.988 8.98C126.111 9.08 126.228 9.22 126.338 9.4L128.528 12.5ZM133.312 9.84L132.187 6.925C132.153 6.83833 132.118 6.73833 132.082 6.625C132.045 6.50833 132.01 6.385 131.977 6.255C131.907 6.525 131.835 6.75 131.762 6.93L130.637 9.84H133.312ZM135.332 12.5H134.582C134.495 12.5 134.425 12.4783 134.372 12.435C134.318 12.3917 134.278 12.3367 134.252 12.27L133.582 10.54H130.367L129.697 12.27C129.677 12.33 129.638 12.3833 129.582 12.43C129.525 12.4767 129.453 12.5 129.367 12.5H128.622L131.487 5.335H132.467L135.332 12.5ZM140.12 8.65V6.105H138.7C138.423 6.105 138.186 6.135 137.99 6.195C137.793 6.255 137.631 6.34167 137.505 6.455C137.378 6.565 137.285 6.69833 137.225 6.855C137.168 7.00833 137.14 7.18 137.14 7.37C137.14 7.57 137.168 7.75 137.225 7.91C137.285 8.06667 137.376 8.2 137.5 8.31C137.626 8.42 137.788 8.505 137.985 8.565C138.185 8.62167 138.423 8.65 138.7 8.65H140.12ZM141.085 12.5H140.12V9.415H139.145C139.055 9.415 138.97 9.42333 138.89 9.44C138.813 9.45333 138.738 9.48 138.665 9.52C138.591 9.56 138.518 9.615 138.445 9.685C138.371 9.75167 138.298 9.83833 138.225 9.945L136.67 12.155C136.61 12.2617 136.528 12.3467 136.425 12.41C136.321 12.47 136.2 12.5 136.06 12.5H135.33L137.185 9.885C137.385 9.59167 137.62 9.38333 137.89 9.26C137.603 9.20667 137.353 9.12333 137.14 9.01C136.926 8.89667 136.748 8.76 136.605 8.6C136.465 8.43667 136.36 8.25167 136.29 8.045C136.22 7.83833 136.185 7.615 136.185 7.375C136.185 7.06833 136.24 6.79 136.35 6.54C136.463 6.29 136.626 6.07667 136.84 5.9C137.056 5.72 137.32 5.58167 137.63 5.485C137.943 5.385 138.3 5.335 138.7 5.335H141.085V12.5ZM112.895 25.335V32.5H103.96V25.335H104.93V31.74H107.93V25.335H108.9V31.74H111.92V25.335H112.895ZM120.442 32.5H119.572C119.475 32.5 119.392 32.475 119.322 32.425C119.255 32.3717 119.192 32.295 119.132 32.195L117.237 29.57C117.15 29.44 117.057 29.35 116.957 29.3C116.857 29.2467 116.72 29.22 116.547 29.22H115.687V32.5H114.722V25.335H115.687V28.475H116.432C116.582 28.475 116.708 28.4517 116.812 28.405C116.918 28.3583 117.023 28.2667 117.127 28.13L119.002 25.61C119.052 25.53 119.112 25.465 119.182 25.415C119.255 25.3617 119.34 25.335 119.437 25.335H120.252L118.087 28.28C117.923 28.51 117.713 28.6683 117.457 28.755C117.633 28.8017 117.782 28.8767 117.902 28.98C118.025 29.08 118.142 29.22 118.252 29.4L120.442 32.5ZM127.719 28.92C127.719 29.4567 127.634 29.95 127.464 30.4C127.294 30.8467 127.054 31.2317 126.744 31.555C126.434 31.8783 126.06 32.13 125.624 32.31C125.19 32.4867 124.71 32.575 124.184 32.575C123.657 32.575 123.177 32.4867 122.744 32.31C122.31 32.13 121.939 31.8783 121.629 31.555C121.319 31.2317 121.079 30.8467 120.909 30.4C120.739 29.95 120.654 29.4567 120.654 28.92C120.654 28.3833 120.739 27.8917 120.909 27.445C121.079 26.995 121.319 26.6083 121.629 26.285C121.939 25.9583 122.31 25.705 122.744 25.525C123.177 25.345 123.657 25.255 124.184 25.255C124.71 25.255 125.19 25.345 125.624 25.525C126.06 25.705 126.434 25.9583 126.744 26.285C127.054 26.6083 127.294 26.995 127.464 27.445C127.634 27.8917 127.719 28.3833 127.719 28.92ZM126.724 28.92C126.724 28.48 126.664 28.085 126.544 27.735C126.424 27.385 126.254 27.09 126.034 26.85C125.814 26.6067 125.547 26.42 125.234 26.29C124.92 26.16 124.57 26.095 124.184 26.095C123.8 26.095 123.452 26.16 123.139 26.29C122.825 26.42 122.557 26.6067 122.334 26.85C122.114 27.09 121.944 27.385 121.824 27.735C121.704 28.085 121.644 28.48 121.644 28.92C121.644 29.36 121.704 29.755 121.824 30.105C121.944 30.4517 122.114 30.7467 122.334 30.99C122.557 31.23 122.825 31.415 123.139 31.545C123.452 31.6717 123.8 31.735 124.184 31.735C124.57 31.735 124.92 31.6717 125.234 31.545C125.547 31.415 125.814 31.23 126.034 30.99C126.254 30.7467 126.424 30.4517 126.544 30.105C126.664 29.755 126.724 29.36 126.724 28.92ZM134.336 32.5H133.366V26.1H130.996C130.949 27.02 130.886 27.8183 130.806 28.495C130.729 29.1717 130.634 29.75 130.521 30.23C130.411 30.71 130.284 31.1017 130.141 31.405C130.001 31.705 129.846 31.9417 129.676 32.115C129.509 32.2883 129.329 32.4067 129.136 32.47C128.943 32.5333 128.738 32.565 128.521 32.565C128.341 32.565 128.203 32.5483 128.106 32.515C128.009 32.485 127.961 32.4383 127.961 32.375V31.76H128.311C128.444 31.76 128.576 31.735 128.706 31.685C128.836 31.6317 128.961 31.5267 129.081 31.37C129.201 31.2133 129.314 30.99 129.421 30.7C129.528 30.41 129.624 30.0267 129.711 29.55C129.798 29.0733 129.873 28.4917 129.936 27.805C129.999 27.115 130.048 26.2917 130.081 25.335H134.336V32.5ZM139.962 29.84L138.837 26.925C138.804 26.8383 138.769 26.7383 138.732 26.625C138.695 26.5083 138.66 26.385 138.627 26.255C138.557 26.525 138.485 26.75 138.412 26.93L137.287 29.84H139.962ZM141.982 32.5H141.232C141.145 32.5 141.075 32.4783 141.022 32.435C140.969 32.3917 140.929 32.3367 140.902 32.27L140.232 30.54H137.017L136.347 32.27C136.327 32.33 136.289 32.3833 136.232 32.43C136.175 32.4767 136.104 32.5 136.017 32.5H135.272L138.137 25.335H139.117L141.982 32.5Z" fill="#444444"/>
</svg>
