<svg width="229" height="82" viewBox="0 0 229 82" fill="none" xmlns="http://www.w3.org/2000/svg">
<g id="Group 18">
<g id="Group 17">
<g id="Group">
<g id="Group_2">
<path id="Vector" d="M58.9827 68.5174C58.9919 68.3224 58.9742 68.1628 58.948 68.0302C58.9118 67.8969 58.8147 67.8352 58.6636 67.826C58.5402 67.8175 58.4332 67.8614 58.3629 67.9501C58.3005 68.0472 58.2389 68.2337 58.1857 68.5174C58.0878 69.1286 57.9907 69.6073 57.8928 69.9618C57.7957 70.3164 57.6631 70.6262 57.5121 70.8836C57.3525 71.1488 57.1397 71.4417 56.8561 71.7608C56.7497 71.8934 56.5285 72.0529 56.174 72.2394C55.8286 72.4337 55.35 72.6025 54.7387 72.7528C54.1268 72.8947 53.3822 72.9748 52.4966 72.9833C51.9555 72.9833 51.3705 72.9925 50.733 73.001C50.0948 73.0103 49.4743 73.0187 48.8545 73.0187C48.2426 73.028 47.7023 73.0365 47.2321 73.0365C49.5013 71.3091 51.4591 69.4477 53.1163 67.4714C54.7735 65.4958 56.0584 63.4657 56.9625 61.393C57.8751 59.3103 58.336 57.2546 58.3445 55.2252C58.336 52.2916 57.8311 49.6424 56.8384 47.2761C55.8464 44.9105 54.4367 42.881 52.6206 41.1884C50.8039 39.4958 48.6503 38.2024 46.1692 37.2983C43.6788 36.3949 40.9324 35.9332 37.9279 35.9247C35.5709 35.9332 33.3556 36.2878 31.2907 36.9792C29.2173 37.6705 27.3381 38.6363 25.6462 39.8773C23.9536 41.1175 22.4999 42.5712 21.2774 44.2369C20.0627 45.9025 19.1154 47.7193 18.4594 49.6778C17.8035 51.6357 17.4667 53.6836 17.4582 55.8102C17.4667 57.4404 17.7057 59.0621 18.202 60.6661C18.6899 62.2786 19.4075 63.8387 20.3386 65.3363C21.2682 66.8424 22.3936 68.2514 23.7139 69.5541C25.0343 70.8567 26.5319 72.0175 28.1983 73.0365C27.4977 73.0365 26.7447 73.028 25.9384 73.0103C25.1321 72.9925 24.3259 72.9833 23.5189 72.9833C22.3496 72.9833 21.3661 72.8592 20.5768 72.6117C19.7798 72.3721 19.1863 72.0352 18.787 71.6013C18.6098 71.424 18.4063 71.0957 18.1581 70.6177C17.9099 70.1391 17.7149 69.4385 17.5638 68.5174C17.5114 68.2337 17.4582 68.0472 17.3873 67.9501C17.3164 67.8614 17.2185 67.8175 17.0852 67.826C16.9349 67.8352 16.8377 67.8969 16.8115 68.0302C16.7753 68.1628 16.7576 68.3224 16.7668 68.5174C16.7668 68.6152 16.7845 68.8719 16.8115 69.2974C16.8462 69.7228 16.8817 70.2277 16.9349 70.8298C16.988 71.4325 17.0412 72.0444 17.1036 72.6734C17.1653 73.2939 17.2185 73.8612 17.2809 74.3661C17.3426 74.8802 17.405 75.2432 17.4582 75.4822C17.5731 75.9346 17.7234 76.2622 17.9099 76.4572C18.0957 76.6522 18.3708 76.7678 18.7424 76.8118C19.1239 76.8564 19.6465 76.8735 20.3293 76.8649C21.6674 76.8649 22.9786 76.8564 24.2635 76.8387C25.5392 76.8118 26.7092 76.794 27.7728 76.7678C28.845 76.7408 29.7314 76.7231 30.4313 76.7054C31.0425 76.7586 31.5744 76.7848 32.0438 76.7941C32.5047 76.8118 32.9032 76.8118 33.2493 76.8118C33.3819 76.8118 33.462 76.7678 33.506 76.6877C33.5499 76.599 33.5683 76.4657 33.5683 76.2799L33.674 74.5788C32.6558 73.9144 31.6183 73.0811 30.5731 72.0884C29.5271 71.0956 28.5259 69.9703 27.5601 68.7123C26.6028 67.4629 25.7434 66.1071 24.9811 64.6449C24.228 63.192 23.626 61.6766 23.1828 60.0903C22.7396 58.4948 22.5177 56.8824 22.5091 55.2252C22.5177 52.31 22.8992 49.7665 23.6522 47.5774C24.4053 45.3884 25.4683 43.5724 26.8248 42.1102C28.1799 40.648 29.7668 39.5582 31.5921 38.8221C33.4173 38.096 35.4021 37.7329 37.5557 37.7329C39.2483 37.7329 40.8608 38.0073 42.4116 38.5477C43.9631 39.088 45.3984 39.8773 46.7095 40.9133C48.0214 41.9507 49.1645 43.2087 50.1388 44.6886C51.1145 46.1685 51.8761 47.8526 52.4164 49.7395C52.9574 51.6187 53.2319 53.6744 53.2404 55.9165C53.2319 58.2729 52.9035 60.4087 52.2746 62.3233C51.6371 64.2372 50.7769 65.9476 49.6963 67.4629C48.6057 68.9783 47.3832 70.3164 46.0189 71.4949C44.6538 72.6649 43.2363 73.6924 41.7564 74.5788L41.916 76.2799C41.9869 76.3863 42.0223 76.4842 42.0308 76.5636C42.0486 76.6345 42.0663 76.6969 42.084 76.7409C42.1017 76.7848 42.1549 76.8118 42.2351 76.8118C42.5804 76.8118 42.9789 76.8118 43.449 76.7941C43.9093 76.7848 44.4411 76.7586 45.0523 76.7054C45.5756 76.7139 46.2224 76.7324 46.9847 76.7501C47.7555 76.7678 48.5972 76.7848 49.519 76.8025C50.4408 76.821 51.4067 76.8387 52.4079 76.8472C53.4184 76.8565 54.4196 76.8649 55.4209 76.8649C56.103 76.8735 56.6349 76.8564 57.0065 76.8118C57.3787 76.7678 57.6631 76.6522 57.8396 76.4572C58.0261 76.2622 58.1765 75.9346 58.2921 75.4822C58.3445 75.2432 58.4069 74.8802 58.4686 74.3661C58.531 73.8612 58.5927 73.2939 58.6551 72.6734C58.7083 72.0444 58.77 71.4325 58.8147 70.8298C58.8679 70.2277 58.9033 69.7228 58.9388 69.2974C58.965 68.8719 58.9827 68.6152 58.9827 68.5174ZM6.82088 44.5631C6.49469 45.504 6.13164 46.3429 5.73028 47.0974C5.33035 47.8434 4.83609 48.4581 4.25816 48.924C3.68946 49.3991 2.97255 49.6977 2.12446 49.8182C1.88195 49.8459 1.6118 49.8749 1.29553 49.8934C0.978563 49.921 0.717604 49.9303 0.502745 49.9303C0.363051 49.9303 0.242508 49.9579 0.148906 50.0147C0.0560133 50.0707 0 50.1536 0 50.2657C0 50.4337 0.083661 50.5451 0.260938 50.611C0.428287 50.6848 0.698459 50.7131 1.06223 50.7131C1.72383 50.7131 2.39465 50.7039 3.07468 50.6848C3.7455 50.6663 4.37944 50.6479 4.9758 50.6295C5.57215 50.611 6.08413 50.5919 6.50392 50.5734C6.923 50.5543 7.22152 50.5451 7.37965 50.5451C7.53779 50.5451 7.78952 50.5543 8.13485 50.5734C8.47026 50.5919 8.86098 50.611 9.28999 50.6295C9.719 50.6479 10.1473 50.6663 10.5763 50.6848C11.0138 50.7039 11.396 50.7131 11.7407 50.7131C11.9924 50.7131 12.1973 50.6848 12.3462 50.611C12.4959 50.5451 12.5795 50.4337 12.5795 50.2657C12.5795 50.1536 12.5327 50.0707 12.4484 50.0147C12.3555 49.9579 12.2158 49.9303 12.02 49.9303H11.4613C11.1351 49.9303 10.8089 49.875 10.4919 49.7629C10.1664 49.6417 9.89556 49.4644 9.68141 49.2219C9.45805 48.9893 9.34601 48.6815 9.33679 48.3085C9.33679 47.7966 9.40132 47.2279 9.54173 46.5854C9.6722 45.9423 9.86791 45.2715 10.1189 44.5631L13.4737 34.6675C13.5297 34.5278 13.6042 34.4157 13.6879 34.3413C13.7815 34.2569 13.8928 34.22 14.0332 34.22H26.0533C26.193 34.22 26.2958 34.2477 26.3702 34.3037C26.4447 34.3597 26.5007 34.4434 26.5567 34.5554L31.7559 48.3085C31.9147 48.756 31.9424 49.1105 31.8403 49.3616C31.7467 49.6133 31.607 49.7629 31.4205 49.8182C31.3091 49.8459 31.2155 49.8934 31.1411 49.9487C31.0666 50.0146 31.029 50.0976 31.029 50.2104C31.029 50.3678 31.178 50.4706 31.4673 50.5082C31.7559 50.5543 32.1757 50.5827 32.7068 50.6011C33.6847 50.6295 34.6448 50.6479 35.5858 50.6663C36.5367 50.6848 37.4124 50.6947 38.2322 50.6947C39.0427 50.7039 39.7326 50.7131 40.3006 50.7131H41.4841C41.8011 50.7131 42.062 50.6848 42.2762 50.611C42.4811 50.5451 42.5932 50.4337 42.6024 50.2657C42.6024 50.126 42.5464 50.0423 42.4535 49.9955C42.3506 49.9487 42.2109 49.9303 42.0436 49.9303C41.7543 49.9303 41.4189 49.9118 41.0282 49.865C40.6367 49.8182 40.2354 49.7346 39.8071 49.5949C39.5185 49.5204 39.1923 49.3807 38.8476 49.185C38.4931 48.9801 38.1208 48.6631 37.7202 48.2341C37.3195 47.7966 36.8905 47.191 36.4339 46.4081C35.9772 45.6345 35.5021 44.6283 34.9986 43.3888C34.5703 42.3173 34.0669 41.0501 33.4989 39.5872C32.921 38.1244 32.3062 36.5402 31.6446 34.8348C30.983 33.1301 30.3022 31.3595 29.6038 29.5513C28.8954 27.7345 28.2061 25.927 27.5254 24.138C26.8361 22.3581 26.1838 20.6527 25.5597 19.031C24.9449 17.4192 24.3854 15.9563 23.882 14.6423C23.3785 13.3376 22.9693 12.2477 22.6339 11.3811C22.2985 10.5238 22.0837 9.95511 21.9724 9.67572C21.7483 9.10702 21.5717 8.66953 21.432 8.38021C21.2916 8.09161 21.1611 7.89587 21.059 7.80298C20.9562 7.70016 20.8541 7.6541 20.742 7.66331C20.63 7.6541 20.5279 7.70938 20.4251 7.82142C20.323 7.92424 20.1925 8.13838 20.0521 8.45535C19.9124 8.77232 19.7358 9.23751 19.5118 9.84309L6.82088 44.5631ZM14.648 32.2069C14.5643 32.2069 14.4991 32.1792 14.4615 32.114C14.4246 32.058 14.4246 31.9559 14.4799 31.8155L19.4004 16.72C19.6798 15.8818 19.9592 15.8818 20.2386 16.72L25.5505 31.8155C25.5874 31.9275 25.5874 32.0211 25.569 32.0948C25.5413 32.17 25.4661 32.2069 25.3264 32.2069H14.648Z" fill="#277525"/>
</g>
</g>
<g id="Group_3">
<g id="Group_4">
<path id="Vector_2" fill-rule="evenodd" clip-rule="evenodd" d="M59.4202 5.59274C60.3966 5.7693 61.144 6.62873 61.144 7.6541C61.144 8.67946 60.3966 9.5389 59.4202 9.71476V11.1337C60.4009 11.306 61.1525 12.1676 61.1525 13.1958C61.1525 14.3481 60.2101 15.2905 59.0585 15.2905C57.9069 15.2905 56.9645 14.3481 56.9645 13.1958C56.9645 12.9348 57.0127 12.6838 57.1014 12.4533L55.8278 11.7209C55.4435 12.2016 54.8528 12.5101 54.1933 12.5101C53.0417 12.5101 52.0994 11.5677 52.0994 10.4161C52.0994 9.3666 52.8822 8.49086 53.8934 8.34407V6.96204C52.8914 6.80746 52.1171 5.93596 52.1171 4.89216C52.1171 3.74057 53.0595 2.79816 54.2118 2.79816C55.3633 2.79816 56.3051 3.74057 56.3051 4.89216C56.3051 5.92391 55.5491 6.78685 54.5642 6.95633V8.35541C55.5406 8.53127 56.2873 9.39071 56.2873 10.4161C56.2873 10.6692 56.2419 10.9125 56.159 11.1373L57.4389 11.8726C57.7616 11.479 58.2246 11.2039 58.7494 11.1252V9.7261C57.7389 9.57932 56.9553 8.70428 56.9553 7.6541C56.9553 6.60391 57.7389 5.72887 58.7494 5.58209V4.166C57.7389 4.01921 56.9553 3.14347 56.9553 2.09399C56.9553 0.942404 57.8977 0 59.0493 0C60.2016 0 61.144 0.942404 61.144 2.09399C61.144 2.35494 61.0951 2.60599 61.0064 2.83716L62.2644 3.55973C62.6487 3.0747 63.2422 2.76198 63.906 2.76198C65.0575 2.76198 65.9999 3.70439 65.9999 4.85597C65.9999 5.90049 65.2249 6.77198 64.2222 6.92586V8.35117C65.2228 8.50646 65.995 9.37793 65.995 10.4203C65.995 11.5719 65.0526 12.5143 63.901 12.5143C62.7494 12.5143 61.807 11.5719 61.807 10.4203C61.807 9.38715 62.5643 8.52347 63.5514 8.35541V6.91945C62.5665 6.74998 61.8113 5.88701 61.8113 4.85597C61.8113 4.60637 61.8559 4.36739 61.9368 4.14544L60.6696 3.4172C60.359 3.79587 59.9201 4.0646 59.4202 4.15466V5.59274Z" fill="#EC6502"/>
</g>
</g>
</g>
<g id="Group_5">
<g id="Group_6">
<g id="Group_7">
<path id="Vector_3" d="M93.1641 0.250342V1.31372C93.6597 1.36104 94.0482 1.49546 94.3246 1.72458C94.6011 1.95369 94.8002 2.25006 94.9098 2.61863C95.0244 2.98471 95.0767 3.39065 95.0717 3.84389V5.28073H94.9447C94.606 4.71293 94.1802 4.22484 93.6597 3.80148C93.1392 3.38061 92.5664 3.05686 91.9314 2.82276C91.2989 2.58867 90.6489 2.4742 89.9765 2.46922C89.1846 2.4742 88.4524 2.63106 87.7701 2.93737C87.0852 3.24866 86.4726 3.68204 85.9197 4.24486C85.3743 4.80768 84.9061 5.46256 84.5102 6.21962C84.1192 6.97918 83.8178 7.806 83.6087 8.70252C83.3995 9.60402 83.2899 10.5453 83.2899 11.5315C83.2949 12.6447 83.4244 13.6458 83.6859 14.5349C83.9474 15.4314 84.301 16.2134 84.7543 16.8784C85.2075 17.5508 85.723 18.1085 86.3057 18.5617C86.8885 19.0075 87.5085 19.3413 88.161 19.5654C88.816 19.7895 89.4734 19.904 90.1359 19.904C90.8979 19.8991 91.5803 19.7696 92.1754 19.5081C92.7681 19.2416 93.2936 18.883 93.7469 18.4248C94.2076 17.9666 94.616 17.4411 94.9771 16.8434H95.0717V18.5294C95.0767 18.9826 95.0244 19.3886 94.9098 19.7522C94.8002 20.1183 94.6011 20.4196 94.3246 20.6487C94.0482 20.8778 93.6597 21.0148 93.1641 21.0621V22.1229H99.664V21.0621C99.1684 21.0148 98.7848 20.8778 98.5009 20.6487C98.227 20.4196 98.0277 20.1183 97.9182 19.7522C97.8111 19.3886 97.7538 18.9826 97.7563 18.5294V16.8434H97.8509C98.2095 17.4411 98.623 17.9666 99.0812 18.4248C99.5394 18.883 100.06 19.2416 100.653 19.5081C101.248 19.7696 101.928 19.8991 102.695 19.904C103.355 19.904 104.012 19.7895 104.669 19.5654C105.319 19.3413 105.94 19.0075 106.522 18.5617C107.108 18.1085 107.621 17.5508 108.074 16.8784C108.527 16.2134 108.881 15.4314 109.142 14.5349C109.401 13.6458 109.531 12.6447 109.538 11.5315C109.538 10.5453 109.429 9.60402 109.219 8.70252C109.013 7.806 108.711 6.97918 108.318 6.21962C107.929 5.46256 107.456 4.80768 106.908 4.24486C106.355 3.68204 105.74 3.24866 105.058 2.93737C104.378 2.63106 103.644 2.4742 102.852 2.46922C102.179 2.4742 101.529 2.58867 100.899 2.82276C100.267 3.05686 99.6913 3.38061 99.1684 3.80148C98.6529 4.22484 98.222 4.71293 97.8833 5.28073H97.7563V3.84389C97.7538 3.39065 97.8111 2.98471 97.9182 2.61863C98.0277 2.25006 98.227 1.95369 98.5009 1.72458C98.7848 1.49546 99.1684 1.36104 99.664 1.31372V0.250342H93.1641ZM97.7563 9.81317C97.7687 8.68256 97.9032 7.74124 98.1747 6.98418C98.4411 6.22213 98.7898 5.61944 99.2206 5.17616C99.649 4.73038 100.112 4.41169 100.605 4.21993C101.101 4.02569 101.579 3.93345 102.04 3.93843C102.428 3.93345 102.832 3.98578 103.238 4.09286C103.648 4.20742 104.039 4.41168 104.418 4.71302C104.794 5.00937 105.133 5.43774 105.434 5.99558C105.73 6.55093 105.969 7.27065 106.146 8.15472C106.321 9.04128 106.408 10.1246 106.413 11.4046C106.408 12.5875 106.313 13.5911 106.126 14.4154C105.94 15.2422 105.691 15.9145 105.377 16.4474C105.065 16.9729 104.719 17.3789 104.341 17.6703C103.965 17.9616 103.586 18.1583 103.2 18.2754C102.819 18.3899 102.461 18.4398 102.132 18.4373C101.903 18.4398 101.606 18.4098 101.248 18.3426C100.887 18.2679 100.508 18.1135 100.105 17.8794C99.7062 17.6379 99.3302 17.2742 98.9766 16.7787C98.6155 16.2905 98.3316 15.6282 98.105 14.7964C97.8833 13.9622 97.7638 12.9161 97.7563 11.656V9.81317ZM95.0717 11.656C95.0642 12.951 94.9298 14.0418 94.6757 14.9159C94.4143 15.79 94.0706 16.4874 93.6423 17.0029C93.2165 17.5184 92.7482 17.8894 92.2377 18.1135C91.7222 18.3327 91.2117 18.4398 90.6962 18.4373C90.3724 18.4398 90.0189 18.3899 89.6378 18.2778C89.2593 18.1657 88.8808 17.9665 88.4997 17.6802C88.1237 17.3938 87.78 16.9829 87.4637 16.4575C87.1499 15.9295 86.8984 15.2545 86.7067 14.4253C86.5199 13.6034 86.4203 12.5925 86.4153 11.4046C86.4203 10.1495 86.5149 9.08357 86.6917 8.20199C86.8735 7.32788 87.1176 6.60814 87.4264 6.0503C87.7327 5.48997 88.0714 5.05672 88.4524 4.75041C88.8309 4.43663 89.2219 4.22496 89.6278 4.10791C90.0312 3.98837 90.4148 3.93345 90.7908 3.93843C91.2739 3.93345 91.7645 4.03308 92.2626 4.22981C92.7632 4.43153 93.2214 4.75529 93.6423 5.20853C94.0706 5.66177 94.4093 6.2645 94.6708 7.02157C94.9298 7.77614 95.0642 8.70746 95.0717 9.81317V11.656ZM112.382 0.250342V1.31372C112.865 1.36602 113.246 1.50546 113.523 1.72959C113.794 1.9587 113.986 2.24999 114.095 2.6086C114.21 2.9697 114.262 3.38069 114.257 3.84389V18.5294C114.262 18.9926 114.21 19.4011 114.095 19.7647C113.986 20.1233 113.794 20.4147 113.523 20.6388C113.246 20.8679 112.865 21.0073 112.382 21.0621V22.1229H118.787V21.0621C118.302 21.0073 117.921 20.8678 117.659 20.6487C117.385 20.4246 117.198 20.1332 117.094 19.7745C116.989 19.4134 116.939 18.9976 116.944 18.5294V17.7175L129.473 6.15487H129.565V18.5294C129.573 18.9826 129.521 19.3886 129.416 19.7522C129.306 20.1183 129.12 20.4196 128.843 20.6487C128.572 20.8778 128.186 21.0148 127.693 21.0621V22.1229H134.098V21.0621C133.582 20.9974 133.191 20.8529 132.925 20.6338C132.661 20.4146 132.479 20.1233 132.385 19.7697C132.29 19.4136 132.25 18.9976 132.253 18.5294V3.84389C132.25 3.38069 132.295 2.9697 132.394 2.6086C132.489 2.24999 132.671 1.9587 132.942 1.72959C133.206 1.50546 133.592 1.36602 134.098 1.31372V0.250342H127.693V1.31372C128.041 1.34361 128.355 1.44817 128.634 1.62C128.923 1.78685 129.145 2.011 129.311 2.28743C129.478 2.56136 129.563 2.87007 129.565 3.21872V4.21993L117.037 15.7502H116.944V3.84389C116.939 3.38069 116.987 2.9697 117.079 2.6086C117.176 2.24999 117.36 1.9587 117.629 1.72959C117.896 1.50546 118.282 1.36602 118.787 1.31372V0.250342H112.382ZM139.721 5.68672H140.598C140.976 4.82755 141.427 4.12524 141.94 3.5674C142.455 3.01206 142.998 2.57378 143.571 2.25003C144.149 1.93127 144.717 1.69722 145.275 1.5478C145.837 1.40087 146.35 1.30618 146.826 1.27132C147.299 1.22898 147.69 1.21405 148.001 1.21903C148.45 1.21903 148.858 1.27141 149.217 1.37103C149.58 1.46566 149.904 1.59508 150.195 1.75695C150.487 1.91882 150.741 2.08816 150.972 2.28241C151.461 2.67837 151.842 3.16649 152.116 3.75421C152.392 4.3494 152.529 5.00941 152.534 5.74904C152.534 6.13006 152.482 6.52603 152.372 6.94192C152.262 7.35781 152.091 7.77615 151.852 8.18208C151.617 8.588 151.314 8.96399 150.94 9.31264C150.335 9.09349 149.747 8.9267 149.184 8.81713C148.624 8.70755 148.059 8.65525 147.503 8.65525C146.806 8.65525 146.211 8.68765 145.72 8.74493C145.232 8.80719 144.826 8.89183 144.503 8.99892C143.952 9.20312 143.534 9.43711 143.257 9.70358C142.983 9.96756 142.804 10.2216 142.717 10.4731C142.627 10.7222 142.592 10.9314 142.597 11.0933C142.597 11.3025 142.65 11.519 142.759 11.7531C142.861 11.9847 143.041 12.2065 143.282 12.4107C143.531 12.6174 143.853 12.7892 144.258 12.9212C144.664 13.0507 145.16 13.1179 145.753 13.1254C146.487 13.1179 147.195 13.0307 147.872 12.8688C148.554 12.7069 149.179 12.4979 149.757 12.2538C150.335 12.0048 150.831 11.7532 151.251 11.4991C151.867 11.9997 152.35 12.6099 152.696 13.3321C153.039 14.0518 153.216 14.8885 153.221 15.8423C153.216 16.6492 153.079 17.3789 152.82 18.0288C152.559 18.6813 152.21 19.2392 151.774 19.7074C151.336 20.1706 150.845 20.5292 150.31 20.7782C149.767 21.0222 149.222 21.1542 148.659 21.1542C148.158 21.1493 147.685 21.077 147.227 20.93C146.774 20.7881 146.34 20.5964 145.925 20.3623C145.514 20.1232 145.118 19.8667 144.744 19.5877C144.363 19.3063 144.002 19.025 143.661 18.7486C142.946 18.1758 142.289 17.7225 141.691 17.3888C141.093 17.0551 140.53 16.8833 140.003 16.8733C139.49 16.8783 139.014 17.0152 138.586 17.2842C138.16 17.5507 137.754 17.9094 137.37 18.3576C136.989 18.8109 136.603 19.3163 136.222 19.8717L136.877 20.6561C136.937 20.5814 137.022 20.4718 137.129 20.3324C137.238 20.1904 137.37 20.0436 137.515 19.8942C137.664 19.7423 137.823 19.6127 137.993 19.5081C138.16 19.401 138.331 19.3462 138.503 19.3412C138.732 19.3462 138.981 19.4011 139.243 19.4982C139.509 19.6028 139.778 19.7323 140.057 19.8942C140.331 20.056 140.608 20.2203 140.879 20.4046C141.92 21.077 143.013 21.5701 144.164 21.8939C145.314 22.2176 146.577 22.3745 147.939 22.3745C148.793 22.3745 149.633 22.2748 150.445 22.0706C151.264 21.8714 152.023 21.5875 152.738 21.2065C153.445 20.8305 154.07 20.3673 154.611 19.8244C155.151 19.284 155.575 18.6688 155.881 17.984C156.185 17.2892 156.342 16.5347 156.344 15.7179C156.342 14.8836 156.195 14.1091 155.913 13.4019C155.627 12.6921 155.241 12.0621 154.748 11.5142C154.257 10.9688 153.694 10.5155 153.064 10.1544V9.9676C153.518 9.58907 153.914 9.18563 154.262 8.77472C154.606 8.36381 154.877 7.90566 155.074 7.41008C155.273 6.90952 155.37 6.34915 155.378 5.71909C155.378 4.96701 155.226 4.25477 154.93 3.57242C154.626 2.89256 154.173 2.2824 153.57 1.74449C152.96 1.20906 152.2 0.788171 151.279 0.474388C150.357 0.168076 149.279 0.00619722 148.034 0.00121653C147.446 0.00121653 146.903 0.0411483 146.415 0.120839C145.92 0.19804 145.461 0.302634 145.035 0.432132C144.602 0.55914 144.189 0.693563 143.785 0.842984C143.175 1.06213 142.675 1.19914 142.279 1.25642C141.883 1.3137 141.566 1.28635 141.327 1.17677C141.086 1.06969 140.894 0.875419 140.755 0.594011H139.721V5.68672ZM149.785 10.5926C149.451 10.9164 149.092 11.183 148.711 11.3847C148.325 11.5889 147.949 11.7432 147.571 11.8478C147.195 11.9574 146.851 12.0297 146.54 12.072C146.228 12.1069 145.977 12.1243 145.785 12.1243C145.222 12.1193 144.799 12.0445 144.525 11.92C144.253 11.7905 144.077 11.6461 143.992 11.4842C143.91 11.3274 143.868 11.1929 143.877 11.0933C143.873 10.909 143.945 10.7173 144.097 10.5156C144.249 10.3163 144.507 10.1469 144.879 10.005C145.247 9.85806 145.758 9.78578 146.408 9.7808C146.973 9.77582 147.533 9.83317 148.096 9.95271C148.659 10.0722 149.222 10.2863 149.785 10.5926ZM158.563 0.250342V1.31372C159.049 1.36602 159.427 1.50546 159.704 1.72959C159.975 1.9587 160.167 2.24999 160.276 2.6086C160.391 2.9697 160.446 3.38069 160.438 3.84389V18.5294C160.446 18.9926 160.391 19.4011 160.276 19.7647C160.167 20.1233 159.975 20.4147 159.704 20.6388C159.427 20.8679 159.049 21.0073 158.563 21.0621V22.1229H164.971V21.0621C164.485 21.0073 164.104 20.8678 163.84 20.6487C163.569 20.4246 163.379 20.1332 163.275 19.7745C163.173 19.4134 163.12 18.9976 163.125 18.5294V17.7175L175.654 6.15487H175.749V18.5294C175.754 18.9826 175.702 19.3886 175.597 19.7522C175.49 20.1183 175.301 20.4196 175.027 20.6487C174.755 20.8778 174.369 21.0148 173.876 21.0621V22.1229H180.279V21.0621C179.766 20.9974 179.375 20.8529 179.108 20.6338C178.842 20.4146 178.66 20.1233 178.568 19.7697C178.471 19.4136 178.431 18.9976 178.436 18.5294V3.84389C178.431 3.38069 178.478 2.9697 178.575 2.6086C178.673 2.24999 178.852 1.9587 179.123 1.72959C179.39 1.50546 179.773 1.36602 180.279 1.31372V0.250342H173.876V1.31372C174.222 1.34361 174.536 1.44817 174.817 1.62C175.104 1.78685 175.328 2.011 175.492 2.28743C175.662 2.56136 175.744 2.87007 175.749 3.21872V4.21993L163.22 15.7502H163.125V3.84389C163.12 3.38069 163.168 2.9697 163.262 2.6086C163.359 2.24999 163.541 1.9587 163.813 1.72959C164.079 1.50546 164.463 1.36602 164.971 1.31372V0.250342H158.563ZM183.531 0.250342V1.31372C184.196 1.39092 184.669 1.64492 184.958 2.07326C185.242 2.49911 185.379 3.08932 185.374 3.84389V18.5294C185.379 19.2964 185.227 19.8941 184.931 20.3199C184.634 20.7483 184.164 20.9974 183.531 21.0621V22.1229H189.904V21.0621C189.418 21.0297 189.04 20.9051 188.773 20.696C188.504 20.4868 188.315 20.1954 188.213 19.8318C188.108 19.4683 188.056 19.0299 188.061 18.5294V9.7808H188.592C188.973 9.77582 189.369 9.79077 189.779 9.82564C190.185 9.86299 190.596 9.95261 191.015 10.0995C191.428 10.244 191.846 10.4781 192.26 10.8068C192.668 11.128 193.077 11.5763 193.468 12.1491C193.856 12.7219 194.23 13.4516 194.591 14.3432C195.017 15.4115 195.403 16.3628 195.759 17.207C196.112 18.0512 196.471 18.786 196.835 19.4135C197.201 20.0411 197.612 20.5665 198.075 20.9924C198.533 21.4157 199.086 21.7369 199.721 21.9661C200.361 22.1952 201.128 22.3321 202.027 22.3745C202.383 22.3894 202.704 22.3895 203.001 22.3646C203.295 22.3422 203.596 22.2948 203.902 22.2176V20.8106C203.295 20.8878 202.752 20.8454 202.278 20.6811C201.798 20.5142 201.377 20.2626 201.006 19.924C200.642 19.5878 200.319 19.1968 200.037 18.7536C199.761 18.3053 199.517 17.8421 199.308 17.364C199.101 16.8784 198.914 16.4102 198.752 15.9569C198.59 15.5087 198.446 15.1026 198.309 14.749C198.042 14.0567 197.731 13.4018 197.373 12.7743C197.019 12.1492 196.586 11.5813 196.085 11.0783C195.579 10.5677 194.974 10.1469 194.27 9.80071C193.56 9.45704 192.721 9.22296 191.747 9.09346V8.90665C192.128 8.80206 192.504 8.63037 192.882 8.40126C193.258 8.16468 193.622 7.90065 193.976 7.59932C194.324 7.30296 194.643 6.98916 194.939 6.67288C195.231 6.35412 195.482 6.05784 195.684 5.78141C195.983 5.36055 196.262 4.96445 196.523 4.59339C196.785 4.22482 197.064 3.92851 197.355 3.69691C197.654 3.4678 198.003 3.34834 198.404 3.34336C198.595 3.3334 198.804 3.37563 199.024 3.45781C199.248 3.54747 199.444 3.71939 199.629 3.98586C199.803 4.24983 199.93 4.65071 199.995 5.18862H201.058V0.344885C200.715 0.210407 200.383 0.115868 200.06 0.0685518C199.736 0.0212353 199.435 -0.00625449 199.153 0.00121653C198.446 0.0111779 197.831 0.155658 197.305 0.447028C196.777 0.733417 196.327 1.11442 195.946 1.58261C195.56 2.05826 195.226 2.56141 194.944 3.10928C194.658 3.65467 194.409 4.19257 194.185 4.71803C194.043 5.04178 193.879 5.39035 193.679 5.75892C193.483 6.12998 193.236 6.49603 192.94 6.84966C192.648 7.20827 192.285 7.52459 191.846 7.80102C191.411 8.08243 190.883 8.29157 190.258 8.4385C189.638 8.57796 188.91 8.61783 188.061 8.56055V3.84389C188.056 3.58987 188.076 3.32342 188.116 3.05198C188.156 2.77804 188.238 2.52147 188.362 2.26995C188.482 2.02589 188.671 1.81676 188.92 1.64493C189.164 1.47558 189.493 1.36602 189.904 1.31372V0.250342H183.531ZM216.212 0.00121653C215.004 0.00619722 213.891 0.163176 212.875 0.464508C211.859 0.77082 210.937 1.19907 210.113 1.73947C209.291 2.28735 208.574 2.91752 207.949 3.63474C207.324 4.35445 206.803 5.13629 206.385 5.96807C205.964 6.80233 205.653 7.66159 205.439 8.54566C205.23 9.43222 205.12 10.3113 205.12 11.1854C205.12 12.062 205.23 12.941 205.439 13.8276C205.653 14.7117 205.964 15.5709 206.385 16.4052C206.803 17.2395 207.324 18.014 207.949 18.7387C208.574 19.4559 209.291 20.0859 210.113 20.6338C210.937 21.1742 211.859 21.6026 212.875 21.9039C213.891 22.2127 215.004 22.367 216.212 22.3745C217.422 22.367 218.535 22.2127 219.552 21.9039C220.573 21.6026 221.489 21.1742 222.311 20.6338C223.133 20.0859 223.857 19.4559 224.477 18.7387C225.102 18.014 225.623 17.2395 226.039 16.4052C226.462 15.5709 226.773 14.7117 226.988 13.8276C227.199 12.941 227.304 12.062 227.304 11.1854C227.304 10.3113 227.199 9.43222 226.988 8.54566C226.773 7.66159 226.462 6.80233 226.039 5.96807C225.623 5.13629 225.102 4.35445 224.477 3.63474C223.857 2.91752 223.133 2.28735 222.311 1.73947C221.489 1.19907 220.573 0.77082 219.552 0.464508C218.535 0.163176 217.422 0.00619722 216.212 0.00121653ZM216.212 1.21903C217.303 1.21903 218.321 1.43812 219.275 1.87642C220.234 2.31223 221.083 2.95228 221.815 3.80148C222.55 4.64571 223.125 5.68668 223.546 6.92687C223.962 8.15959 224.176 9.58163 224.181 11.1854C224.176 12.7892 223.962 14.2062 223.546 15.4464C223.125 16.6816 222.55 17.7275 221.815 18.5692C221.083 19.4184 220.234 20.061 219.275 20.4968C218.321 20.9351 217.303 21.1542 216.212 21.1542C215.129 21.1542 214.105 20.9351 213.151 20.4968C212.193 20.061 211.348 19.4184 210.609 18.5692C209.877 17.7275 209.304 16.6816 208.885 15.4464C208.462 14.2062 208.25 12.7892 208.245 11.1854C208.25 9.58163 208.462 8.15959 208.885 6.92687C209.304 5.68668 209.877 4.64571 210.609 3.80148C211.348 2.95228 212.193 2.31223 213.151 1.87642C214.105 1.43812 215.129 1.21903 216.212 1.21903Z" fill="#277525"/>
</g>
</g>
<g id="Group_8">
<g id="Group_9">
<path id="Vector_4" d="M86.2709 33.9521H83.6835V34.4378C83.8279 34.4403 83.9624 34.475 84.0919 34.5323C84.2189 34.5946 84.3235 34.6818 84.4007 34.8088C84.4829 34.9333 84.5228 35.0951 84.5277 35.2969V42.342C84.5277 42.5163 84.5078 42.6857 84.4679 42.8475C84.4281 43.0094 84.3459 43.1489 84.2264 43.261C84.1044 43.3755 83.9225 43.4452 83.6835 43.4701V43.9583H85.9397V43.4701C85.8053 43.4626 85.6708 43.4278 85.5388 43.3605C85.4093 43.2933 85.3022 43.1787 85.2175 43.0169C85.1304 42.855 85.0856 42.6309 85.0831 42.342V34.51H85.1254L88.8858 44.0728H89.3565L93.3161 34.4949H93.3585V42.3146C93.356 42.606 93.3137 42.8351 93.2315 43.002C93.1468 43.1663 93.0397 43.2859 92.9127 43.3557C92.7857 43.4254 92.6512 43.4626 92.5167 43.4701V43.9583H95.433V43.4701C95.281 43.4626 95.144 43.4203 95.017 43.3406C94.89 43.2584 94.7854 43.1364 94.7107 42.9696C94.631 42.8027 94.5912 42.5836 94.5887 42.3146V35.5957C94.5862 35.384 94.6086 35.1948 94.6584 35.0304C94.7058 34.866 94.7904 34.7341 94.9149 34.627C95.0395 34.5249 95.2113 34.4627 95.433 34.4378V33.9521H92.8728L89.5283 42.0856H89.471L86.2709 33.9521ZM101.594 33.8375H101.308C101.238 33.9172 101.148 33.9969 101.036 34.079C100.924 34.1612 100.802 34.2359 100.673 34.3057C100.546 34.3729 100.424 34.4203 100.307 34.4527V34.9383C100.401 34.9358 100.483 34.9507 100.548 34.9805C100.615 35.0104 100.648 35.0703 100.65 35.1525C100.653 35.1774 100.645 35.2122 100.628 35.2621C100.613 35.3094 100.576 35.3915 100.521 35.511L97.3056 42.4566C97.2733 42.5313 97.2235 42.6209 97.1587 42.7305C97.094 42.8376 97.0118 42.9472 96.9171 43.0543C96.82 43.1638 96.7105 43.2561 96.5884 43.3358C96.4639 43.413 96.327 43.4577 96.1751 43.4701V43.9583H98.3915V43.4701C98.2271 43.4377 98.1051 43.3855 98.0254 43.3207C97.9432 43.256 97.8909 43.1888 97.8685 43.1166C97.8436 43.0468 97.8311 42.9846 97.8336 42.9298C97.8311 42.9098 97.8411 42.8651 97.8585 42.7904C97.881 42.7157 97.9307 42.596 98.0055 42.4267L98.5608 41.2139H103.537L104.109 42.499C104.152 42.5986 104.186 42.6882 104.206 42.7604C104.229 42.8327 104.239 42.8849 104.239 42.9123C104.239 43.0244 104.231 43.1141 104.209 43.1888C104.189 43.261 104.139 43.3233 104.067 43.3681C103.992 43.413 103.88 43.4477 103.723 43.4701V43.9583H106.525V43.4701C106.353 43.4602 106.206 43.4079 106.074 43.3133C105.947 43.2211 105.833 43.0991 105.733 42.9422C105.628 42.7878 105.539 42.6111 105.452 42.4143L101.594 33.8375ZM103.28 40.656H98.8198L101.006 35.9518H101.166L103.28 40.656ZM105.282 35.7676H105.768C105.813 35.531 105.89 35.3193 105.999 35.1275C106.109 34.9408 106.271 34.7889 106.48 34.6793C106.689 34.5697 106.966 34.5125 107.312 34.51H109.341V42.3146C109.344 42.5288 109.319 42.718 109.272 42.8799C109.222 43.0418 109.137 43.1763 109.01 43.2759C108.886 43.3755 108.711 43.4427 108.485 43.4701V43.9583H111.413V43.4701C111.182 43.4477 111.005 43.383 110.885 43.2785C110.761 43.1763 110.679 43.0418 110.634 42.8775C110.589 42.7106 110.569 42.5263 110.572 42.3146V34.51H112.586C112.898 34.5125 113.157 34.5572 113.358 34.6443C113.56 34.734 113.717 34.8437 113.832 34.9757C113.946 35.1102 114.026 35.2471 114.071 35.3865C114.118 35.531 114.143 35.658 114.145 35.7676H114.628V33.8375L111.386 33.9521H108.527L105.282 33.8375V35.7676ZM115.56 33.9521V34.4378C115.796 34.4452 115.976 34.4974 116.1 34.5971C116.225 34.6967 116.309 34.8337 116.352 35.0081C116.399 35.1799 116.422 35.374 116.417 35.5957V42.3146C116.422 42.5263 116.394 42.7106 116.339 42.8775C116.285 43.0418 116.195 43.1763 116.068 43.2785C115.943 43.383 115.774 43.4477 115.56 43.4701V43.9583H123.651L123.808 41.8141H123.322C123.295 42.1329 123.208 42.3969 123.061 42.6036C122.911 42.8103 122.715 42.9746 122.468 43.0916C122.224 43.2062 121.94 43.2859 121.616 43.3332C121.3 43.378 120.951 43.403 120.578 43.4005H117.647V39.1693H119.435C119.592 39.1668 119.729 39.1693 119.848 39.1768C119.968 39.1818 120.075 39.2067 120.165 39.254C120.257 39.2988 120.336 39.376 120.409 39.4881C120.478 39.6001 120.546 39.7596 120.605 39.9713H121.079V37.8097H120.605C120.565 38.0189 120.498 38.1807 120.409 38.2927C120.314 38.4048 120.209 38.482 120.095 38.5268C119.98 38.5717 119.863 38.5966 119.746 38.604C119.629 38.6115 119.525 38.614 119.435 38.6115H117.647V34.51H120.262C120.528 34.5075 120.78 34.5198 121.019 34.5472C121.255 34.5746 121.469 34.632 121.669 34.7167C121.863 34.8014 122.032 34.9233 122.174 35.0901C122.314 35.252 122.421 35.4687 122.493 35.7377H122.979V33.8375C122.809 33.8301 122.677 33.8276 122.585 33.8301C122.49 33.8326 122.416 33.8401 122.364 33.8476C122.309 33.8575 122.259 33.8649 122.214 33.8773C122.169 33.8898 122.109 33.9022 122.037 33.9097C121.963 33.9222 121.86 33.9347 121.728 33.9397C121.596 33.9471 121.417 33.9521 121.191 33.9521H115.56ZM127.511 33.9521H124.924V34.4378C125.068 34.4403 125.202 34.475 125.332 34.5323C125.459 34.5946 125.564 34.6818 125.641 34.8088C125.723 34.9333 125.763 35.0951 125.768 35.2969V42.342C125.768 42.5163 125.748 42.6857 125.711 42.8475C125.668 43.0094 125.586 43.1489 125.466 43.261C125.344 43.3755 125.163 43.4452 124.924 43.4701V43.9583H127.18V43.4701C127.045 43.4626 126.911 43.4278 126.779 43.3605C126.649 43.2933 126.542 43.1787 126.458 43.0169C126.37 42.855 126.326 42.6309 126.323 42.342V34.51H126.365L130.126 44.0728H130.597L134.556 34.4949H134.599V42.3146C134.599 42.606 134.554 42.8351 134.472 43.002C134.387 43.1663 134.28 43.2859 134.153 43.3557C134.026 43.4254 133.894 43.4626 133.757 43.4701V43.9583H136.673V43.4701C136.521 43.4626 136.384 43.4203 136.257 43.3406C136.13 43.2584 136.028 43.1364 135.951 42.9696C135.874 42.8027 135.831 42.5836 135.829 42.3146V35.5957C135.826 35.384 135.849 35.1948 135.899 35.0304C135.946 34.866 136.03 34.7341 136.155 34.627C136.28 34.5249 136.451 34.4627 136.673 34.4378V33.9521H134.113L130.768 42.0856H130.711L127.511 33.9521ZM142.834 33.8375H142.548C142.478 33.9172 142.388 33.9969 142.276 34.079C142.164 34.1612 142.042 34.2359 141.915 34.3057C141.786 34.3729 141.664 34.4203 141.547 34.4527V34.9383C141.644 34.9358 141.723 34.9507 141.788 34.9805C141.855 35.0104 141.888 35.0703 141.89 35.1525C141.893 35.1774 141.885 35.2122 141.868 35.2621C141.853 35.3094 141.816 35.3915 141.761 35.511L138.546 42.4566C138.513 42.5313 138.464 42.6209 138.399 42.7305C138.334 42.8376 138.252 42.9472 138.157 43.0543C138.063 43.1638 137.953 43.2561 137.829 43.3358C137.704 43.413 137.567 43.4577 137.415 43.4701V43.9583H139.632V43.4701C139.467 43.4377 139.345 43.3855 139.265 43.3207C139.183 43.256 139.131 43.1888 139.109 43.1166C139.084 43.0468 139.071 42.9846 139.074 42.9298C139.071 42.9098 139.081 42.8651 139.101 42.7904C139.121 42.7157 139.171 42.596 139.246 42.4267L139.803 41.2139H144.777L145.349 42.499C145.392 42.5986 145.427 42.6882 145.446 42.7604C145.469 42.8327 145.479 42.8849 145.479 42.9123C145.479 43.0244 145.471 43.1141 145.449 43.1888C145.429 43.261 145.379 43.3233 145.307 43.3681C145.232 43.413 145.12 43.4477 144.963 43.4701V43.9583H147.765V43.4701C147.593 43.4602 147.446 43.4079 147.314 43.3133C147.187 43.2211 147.073 43.0991 146.973 42.9422C146.868 42.7878 146.779 42.6111 146.692 42.4143L142.834 33.8375ZM144.52 40.656H140.06L142.249 35.9518H142.406L144.52 40.656ZM146.522 35.7676H147.008C147.053 35.531 147.13 35.3193 147.24 35.1275C147.349 34.9408 147.511 34.7889 147.72 34.6793C147.929 34.5697 148.206 34.5125 148.552 34.51H150.582V42.3146C150.584 42.5288 150.562 42.718 150.512 42.8799C150.462 43.0418 150.377 43.1763 150.25 43.2759C150.128 43.3755 149.952 43.4427 149.725 43.4701V43.9583H152.654V43.4701C152.424 43.4477 152.245 43.383 152.126 43.2785C152.001 43.1763 151.919 43.0418 151.874 42.8775C151.829 42.7106 151.809 42.5263 151.812 42.3146V34.51H153.827C154.138 34.5125 154.397 34.5572 154.599 34.6443C154.8 34.734 154.957 34.8437 155.072 34.9757C155.186 35.1102 155.266 35.2471 155.313 35.3865C155.358 35.531 155.383 35.658 155.385 35.7676H155.869V33.8375L152.626 33.9521H149.767L146.522 33.8375V35.7676ZM156.8 33.9521V34.4378C157.022 34.4627 157.196 34.5249 157.323 34.627C157.447 34.7341 157.535 34.866 157.584 35.0304C157.637 35.1948 157.662 35.384 157.657 35.5957V42.3146C157.662 42.5263 157.637 42.7106 157.584 42.8775C157.535 43.0418 157.447 43.1763 157.323 43.2785C157.196 43.383 157.022 43.4477 156.8 43.4701V43.9583H159.731V43.4701C159.509 43.4477 159.335 43.3831 159.213 43.2835C159.091 43.1814 159.004 43.0468 158.957 42.8849C158.909 42.7181 158.884 42.5288 158.887 42.3146V41.9436L164.62 36.6541H164.662V42.3146C164.664 42.5213 164.64 42.7056 164.592 42.8725C164.542 43.0418 164.458 43.1789 164.331 43.2835C164.206 43.3881 164.029 43.4502 163.803 43.4701V43.9583H166.734V43.4701C166.497 43.4427 166.321 43.3755 166.199 43.2759C166.076 43.1763 165.994 43.0418 165.952 42.8799C165.907 42.718 165.89 42.5288 165.89 42.3146V35.5957C165.89 35.384 165.91 35.1948 165.957 35.0304C165.999 34.866 166.081 34.7341 166.206 34.627C166.328 34.5249 166.505 34.4627 166.734 34.4378V33.9521H163.803V34.4378C163.965 34.4527 164.107 34.4999 164.236 34.5771C164.366 34.6543 164.47 34.7564 164.545 34.8834C164.622 35.0104 164.659 35.1499 164.662 35.3093V35.7676L158.929 41.0397H158.887V35.5957C158.884 35.384 158.907 35.1948 158.949 35.0304C158.994 34.866 159.079 34.7341 159.201 34.627C159.323 34.5249 159.5 34.4627 159.731 34.4378V33.9521H156.8ZM167.665 33.9521V34.4378C167.894 34.4627 168.071 34.5249 168.196 34.627C168.315 34.7341 168.4 34.866 168.445 35.0304C168.49 35.1948 168.51 35.384 168.507 35.5957V37.4112C168.505 37.6477 168.522 37.8868 168.559 38.1333C168.597 38.3774 168.674 38.6115 168.791 38.8381C168.906 39.0647 169.08 39.2639 169.306 39.4432C169.538 39.62 169.842 39.7621 170.22 39.8667C170.599 39.9713 171.072 40.026 171.637 40.026C172.018 40.026 172.385 39.9936 172.736 39.9339C173.082 39.8741 173.416 39.7944 173.724 39.6998C174.036 39.6052 174.32 39.5056 174.583 39.3985V42.3146C174.583 42.5338 174.559 42.7256 174.506 42.8899C174.456 43.0543 174.369 43.1863 174.245 43.2859C174.12 43.3855 173.951 43.4477 173.739 43.4701V43.9583H176.668V43.4701C176.359 43.4402 176.14 43.3232 176.003 43.124C175.874 42.9223 175.809 42.6533 175.814 42.3146V35.5957C175.809 35.4836 175.819 35.3616 175.839 35.2371C175.859 35.1126 175.896 34.9905 175.958 34.876C176.015 34.7614 176.103 34.6643 176.217 34.5846C176.329 34.5074 176.481 34.4577 176.668 34.4378V33.9521H173.739V34.4378C173.968 34.4627 174.148 34.5299 174.27 34.632C174.392 34.7391 174.476 34.871 174.521 35.0379C174.564 35.2022 174.583 35.3865 174.583 35.5957V38.7261C174.399 38.8157 174.198 38.9028 173.973 38.9825C173.754 39.0672 173.523 39.1395 173.284 39.2043C173.044 39.2665 172.81 39.3163 172.574 39.3561C172.34 39.3935 172.121 39.4108 171.909 39.4108C171.428 39.4108 171.04 39.3486 170.751 39.2291C170.457 39.112 170.24 38.9577 170.093 38.7709C169.949 38.5767 169.852 38.3749 169.802 38.1558C169.755 37.9391 169.732 37.7275 169.735 37.5258V35.5957C169.735 35.384 169.76 35.1948 169.807 35.0304C169.854 34.866 169.939 34.7341 170.064 34.627C170.186 34.5249 170.357 34.4627 170.582 34.4378V33.9521H167.665ZM178.155 33.9521V34.4378C178.391 34.4452 178.573 34.4974 178.695 34.5971C178.82 34.6967 178.904 34.8337 178.947 35.0081C178.994 35.1799 179.016 35.374 179.014 35.5957V42.3146C179.016 42.5263 178.989 42.7106 178.934 42.8775C178.879 43.0418 178.79 43.1763 178.663 43.2785C178.538 43.383 178.369 43.4477 178.155 43.4701V43.9583H186.246L186.403 41.8141H185.917C185.892 42.1329 185.803 42.3969 185.656 42.6036C185.506 42.8103 185.309 42.9746 185.063 43.0916C184.819 43.2062 184.535 43.2859 184.214 43.3332C183.895 43.378 183.546 43.403 183.173 43.4005H180.242V39.1693H182.03C182.186 39.1668 182.323 39.1693 182.443 39.1768C182.563 39.1818 182.67 39.2067 182.759 39.254C182.851 39.2988 182.931 39.376 183.003 39.4881C183.076 39.6001 183.14 39.7596 183.2 39.9713H183.673V37.8097H183.2C183.16 38.0189 183.093 38.1807 183.003 38.2927C182.909 38.4048 182.807 38.482 182.69 38.5268C182.575 38.5717 182.458 38.5966 182.341 38.604C182.224 38.6115 182.119 38.614 182.03 38.6115H180.242V34.51H182.859C183.123 34.5075 183.374 34.5198 183.613 34.5472C183.85 34.5746 184.064 34.632 184.263 34.7167C184.458 34.8014 184.627 34.9233 184.769 35.0901C184.908 35.252 185.016 35.4687 185.088 35.7377H185.573V33.8375C185.404 33.8301 185.275 33.8276 185.18 33.8301C185.085 33.8326 185.013 33.8401 184.958 33.8476C184.906 33.8575 184.856 33.8649 184.809 33.8773C184.764 33.8898 184.704 33.9022 184.635 33.9097C184.56 33.9222 184.455 33.9347 184.326 33.9397C184.191 33.9471 184.014 33.9521 183.788 33.9521H178.155ZM195.637 36.3827V34.1812H195.423C195.413 34.1936 195.395 34.211 195.363 34.2359C195.333 34.2633 195.296 34.2907 195.243 34.3131C195.196 34.338 195.141 34.3505 195.079 34.3505C195.014 34.3505 194.94 34.3481 194.85 34.3356C194.765 34.3232 194.658 34.3032 194.531 34.2733C194.404 34.2459 194.25 34.2035 194.065 34.1512C193.839 34.0865 193.617 34.0293 193.401 33.9795C193.181 33.9347 192.965 33.8997 192.746 33.8723C192.526 33.8499 192.302 33.8375 192.063 33.8375C191.368 33.84 190.731 33.972 190.156 34.2285C189.58 34.4825 189.077 34.8461 188.659 35.3093C188.236 35.775 187.909 36.3205 187.683 36.948C187.451 37.5781 187.334 38.2629 187.332 39.0125C187.337 39.8019 187.459 40.5116 187.703 41.1342C187.944 41.7593 188.283 42.2898 188.721 42.7256C189.157 43.1639 189.668 43.4951 190.258 43.7267C190.843 43.9558 191.483 44.0703 192.178 44.0728C192.733 44.0678 193.254 43.9857 193.724 43.8288C194.197 43.6695 194.626 43.4553 195.009 43.1863C195.395 42.9174 195.732 42.6185 196.023 42.2848L195.722 41.9561C195.468 42.2499 195.164 42.5139 194.815 42.748C194.466 42.9796 194.085 43.1664 193.684 43.3058C193.279 43.4403 192.868 43.5125 192.449 43.515C191.909 43.515 191.413 43.4178 190.962 43.2236C190.512 43.0293 190.126 42.743 189.795 42.3645C189.466 41.986 189.214 41.5153 189.032 40.9574C188.856 40.3971 188.763 39.7571 188.761 39.0249C188.763 38.3924 188.831 37.8246 188.96 37.3265C189.092 36.8259 189.272 36.3926 189.498 36.024C189.725 35.6579 189.986 35.3542 190.278 35.1126C190.569 34.8686 190.875 34.6892 191.204 34.5721C191.528 34.4526 191.852 34.3954 192.178 34.3954C192.457 34.3929 192.741 34.4303 193.027 34.5025C193.318 34.5747 193.597 34.6893 193.869 34.8462C194.14 35.0056 194.384 35.2096 194.606 35.4612C194.825 35.7127 195.009 36.0216 195.151 36.3827H195.637ZM197.323 33.9521V34.4378C197.627 34.4751 197.846 34.5896 197.975 34.7839C198.107 34.9806 198.17 35.2495 198.167 35.5957V42.3146C198.17 42.6633 198.1 42.9398 197.963 43.1341C197.828 43.3283 197.614 43.4427 197.323 43.4701V43.9583H200.239V43.4701C200.017 43.4577 199.843 43.4004 199.724 43.3058C199.597 43.2112 199.512 43.0742 199.465 42.9099C199.417 42.743 199.392 42.5412 199.395 42.3146V38.3127H199.639C199.813 38.3077 199.992 38.3176 200.182 38.3326C200.368 38.35 200.558 38.3898 200.747 38.4571C200.936 38.5243 201.128 38.6314 201.317 38.7808C201.504 38.9277 201.688 39.1345 201.87 39.3935C202.047 39.6575 202.219 39.9912 202.383 40.3972C202.58 40.8878 202.754 41.321 202.916 41.7095C203.078 42.0955 203.242 42.4316 203.409 42.718C203.579 43.0044 203.765 43.2436 203.977 43.4403C204.186 43.6321 204.44 43.7814 204.729 43.886C205.023 43.9906 205.374 44.0529 205.785 44.0728C205.947 44.0778 206.094 44.0779 206.231 44.0679C206.363 44.058 206.502 44.0355 206.644 44.0006V43.3581C206.363 43.393 206.116 43.3756 205.9 43.2984C205.68 43.2212 205.489 43.1065 205.319 42.9521C205.15 42.7977 205.003 42.6185 204.874 42.4143C204.749 42.2126 204.637 41.9984 204.542 41.7793C204.445 41.5601 204.361 41.346 204.286 41.1368C204.214 40.9326 204.146 40.7457 204.084 40.5838C203.962 40.2675 203.82 39.9662 203.656 39.6823C203.491 39.3934 203.297 39.1345 203.068 38.9029C202.836 38.6713 202.56 38.477 202.236 38.3201C201.913 38.1632 201.526 38.0561 201.083 37.9964V37.9117C201.255 37.8644 201.427 37.7848 201.601 37.6802C201.773 37.5731 201.94 37.451 202.102 37.314C202.261 37.1771 202.408 37.0351 202.543 36.8881C202.677 36.7437 202.792 36.6093 202.884 36.4823C203.021 36.288 203.148 36.1087 203.267 35.9394C203.384 35.77 203.516 35.6331 203.648 35.5285C203.785 35.4239 203.945 35.3691 204.126 35.3666C204.214 35.3616 204.308 35.3816 204.41 35.4189C204.512 35.4612 204.602 35.5384 204.687 35.6604C204.769 35.7825 204.824 35.9643 204.856 36.2108H205.342V33.9944C205.185 33.9346 205.03 33.8899 204.886 33.8675C204.737 33.8475 204.597 33.835 204.47 33.8375C204.146 33.8425 203.865 33.9098 203.623 34.0418C203.384 34.1738 203.178 34.3481 203.001 34.5623C202.826 34.7789 202.675 35.0104 202.545 35.2595C202.413 35.511 202.301 35.7551 202.196 35.9967C202.134 36.1436 202.057 36.3029 201.965 36.4723C201.875 36.6416 201.763 36.8085 201.629 36.9704C201.494 37.1347 201.327 37.2791 201.128 37.4061C200.929 37.5356 200.687 37.6303 200.401 37.6975C200.117 37.7598 199.786 37.7797 199.395 37.7548V35.5957C199.392 35.4786 199.402 35.3566 199.422 35.2345C199.44 35.1075 199.477 34.9905 199.534 34.876C199.589 34.7639 199.674 34.6693 199.791 34.5896C199.9 34.5124 200.05 34.4627 200.239 34.4378V33.9521H197.323ZM212.061 33.8375H211.774C211.707 33.9172 211.615 33.9969 211.503 34.079C211.393 34.1612 211.269 34.2359 211.142 34.3057C211.012 34.3729 210.89 34.4203 210.776 34.4527V34.9383C210.87 34.9358 210.95 34.9507 211.015 34.9805C211.082 35.0104 211.114 35.0703 211.117 35.1525C211.119 35.1774 211.112 35.2122 211.094 35.2621C211.079 35.3094 211.045 35.3915 210.99 35.511L207.772 42.4566C207.74 42.5313 207.693 42.6209 207.625 42.7305C207.561 42.8376 207.478 42.9472 207.384 43.0543C207.289 43.1638 207.18 43.2561 207.055 43.3358C206.933 43.413 206.794 43.4577 206.644 43.4701V43.9583H208.858V43.4701C208.694 43.4377 208.574 43.3855 208.492 43.3207C208.41 43.256 208.36 43.1888 208.335 43.1166C208.31 43.0468 208.298 42.9846 208.303 42.9298C208.298 42.9098 208.31 42.8651 208.328 42.7904C208.348 42.7157 208.397 42.596 208.472 42.4267L209.03 41.2139H214.006L214.578 42.499C214.621 42.5986 214.653 42.6882 214.673 42.7604C214.695 42.8327 214.705 42.8849 214.705 42.9123C214.708 43.0244 214.698 43.1141 214.676 43.1888C214.656 43.261 214.608 43.3233 214.534 43.3681C214.459 43.413 214.347 43.4477 214.19 43.4701V43.9583H216.992V43.4701C216.82 43.4602 216.673 43.4079 216.543 43.3133C216.414 43.2211 216.299 43.0991 216.2 42.9422C216.098 42.7878 216.005 42.6111 215.921 42.4143L212.061 33.8375ZM213.747 40.656H209.286L211.475 35.9518H211.632L213.747 40.656ZM223.225 43.4701V43.9583H226.168V43.4701C225.982 43.4527 225.832 43.403 225.715 43.3233C225.601 43.2436 225.514 43.1489 225.456 43.0343C225.396 42.9173 225.359 42.7978 225.339 42.6708C225.319 42.5462 225.309 42.4267 225.312 42.3146V35.5957C225.309 35.3865 225.332 35.2023 225.382 35.0354C225.431 34.8661 225.516 34.7316 225.641 34.627C225.765 34.5199 225.942 34.4577 226.168 34.4378V33.9521H222.595C221.897 33.9521 221.3 33.9994 220.804 34.0915C220.306 34.1861 219.893 34.3157 219.567 34.485C219.24 34.6519 218.986 34.8486 218.8 35.0777C218.613 35.3068 218.481 35.5559 218.404 35.8273C218.329 36.0988 218.291 36.3852 218.291 36.6816C218.296 36.9929 218.346 37.2768 218.446 37.5308C218.546 37.7823 218.68 38.0064 218.852 38.2006C219.024 38.3924 219.22 38.5543 219.44 38.6863C219.664 38.8158 219.893 38.9153 220.137 38.9825C220.381 39.0498 220.622 39.0847 220.867 39.0847V39.1271C220.717 39.1619 220.578 39.2117 220.451 39.2789C220.319 39.3437 220.184 39.4258 220.05 39.5255C219.793 39.7222 219.582 39.9389 219.415 40.173C219.25 40.4096 219.113 40.6561 219.011 40.9051C218.907 41.1592 218.819 41.4057 218.747 41.6498C218.678 41.8938 218.608 42.1204 218.538 42.3321C218.471 42.5463 218.389 42.728 218.291 42.8849C218.197 43.0368 218.082 43.1663 217.943 43.2684C217.806 43.3755 217.656 43.4502 217.495 43.5025C217.333 43.5523 217.166 43.5773 216.992 43.5698V44.0579C217.136 44.0703 217.275 44.0779 217.412 44.0754C217.552 44.0754 217.694 44.0728 217.836 44.0728C218.015 44.0728 218.197 44.0505 218.376 44.0106C218.555 43.9658 218.73 43.9085 218.894 43.8288C219.158 43.7068 219.385 43.54 219.574 43.3358C219.768 43.1291 219.933 42.8924 220.07 42.6309C220.212 42.367 220.331 42.0856 220.433 41.7918C220.54 41.4904 220.635 41.1891 220.722 40.8852C220.767 40.7184 220.824 40.5465 220.896 40.3622C220.971 40.1779 221.073 40.0061 221.205 39.8442C221.34 39.6798 221.519 39.5453 221.746 39.4432C221.972 39.3411 222.259 39.2864 222.61 39.2839H224.082V42.3146C224.084 42.5313 224.057 42.7207 224.007 42.8875C223.955 43.0544 223.865 43.1887 223.74 43.2883C223.611 43.3904 223.442 43.4502 223.225 43.4701ZM224.082 34.51V38.7261H222.41C222.022 38.7286 221.663 38.6912 221.337 38.624C221.011 38.5517 220.727 38.4347 220.488 38.2728C220.246 38.111 220.06 37.8943 219.925 37.6229C219.791 37.349 219.726 37.0127 219.723 36.6118C219.726 36.2656 219.773 35.9742 219.875 35.7326C219.975 35.4961 220.112 35.2969 220.281 35.145C220.446 34.9906 220.635 34.8685 220.844 34.7839C221.053 34.6942 221.268 34.632 221.487 34.5946C221.708 34.5548 221.915 34.5298 222.119 34.5198C222.318 34.5124 222.498 34.5075 222.652 34.51H224.082Z" fill="#277525"/>
</g>
</g>
<g id="Group_10">
<g id="Group_11">
<path id="Vector_5" d="M82 80.925H119.477V79.6573C118.875 79.5951 118.416 79.4283 118.098 79.1543C117.776 78.8879 117.557 78.5392 117.445 78.1109C117.328 77.6776 117.273 77.1919 117.278 76.6415V59.1319C117.273 58.5666 117.336 58.076 117.46 57.6452C117.585 57.2119 117.806 56.8706 118.13 56.6042C118.451 56.3427 118.899 56.1759 119.477 56.1137V54.8486H111.839V56.1137C112.412 56.1635 112.858 56.3253 113.182 56.5868C113.51 56.8533 113.739 57.2018 113.876 57.6352C114.013 58.071 114.081 58.5666 114.076 59.1319V79.4705H102.341V59.1319C102.336 58.5716 102.383 58.0759 102.496 57.6551C102.608 57.2317 102.824 56.8831 103.141 56.6216C103.459 56.3552 103.925 56.1884 104.54 56.1137V54.8486H96.9022V56.1137C97.5173 56.1684 97.988 56.3302 98.3118 56.6042C98.6355 56.8781 98.8571 57.2318 98.9692 57.6726C99.0887 58.1084 99.1436 58.5915 99.1361 59.1319V79.4705H87.4016V59.1319C87.3966 58.579 87.4588 58.0884 87.5834 57.6601C87.7054 57.2318 87.9295 56.8832 88.2533 56.6118C88.5696 56.3428 89.0228 56.1759 89.6005 56.1137V54.8486H82V56.1137C82.5778 56.1759 83.031 56.3428 83.3497 56.6118C83.6685 56.8832 83.8927 57.2318 84.0197 57.6601C84.1417 58.0884 84.2039 58.579 84.199 59.1319V76.6415C84.2039 77.1919 84.1417 77.6776 84.0197 78.1109C83.8927 78.5392 83.6685 78.8879 83.3497 79.1543C83.031 79.4283 82.5778 79.5901 82 79.6573V80.925ZM123.352 54.8486V56.1137C124.147 56.2058 124.712 56.5122 125.053 57.0202C125.394 57.5282 125.556 58.2304 125.549 59.1319V76.6415C125.556 77.553 125.377 78.2677 125.021 78.7757C124.667 79.2862 124.109 79.5826 123.352 79.6573V80.925H130.95V79.6573C130.372 79.62 129.922 79.4705 129.603 79.224C129.279 78.9749 129.058 78.6263 128.933 78.193C128.809 77.7571 128.746 77.2367 128.754 76.6415V66.2096H129.386C129.84 66.2021 130.313 66.2219 130.803 66.2643C131.286 66.3091 131.777 66.4137 132.273 66.588C132.771 66.7624 133.266 67.0412 133.757 67.4322C134.247 67.8182 134.733 68.3511 135.199 69.036C135.662 69.7183 136.11 70.585 136.538 71.6484C137.047 72.9209 137.507 74.0566 137.931 75.0627C138.352 76.0688 138.78 76.9454 139.216 77.695C139.649 78.4421 140.14 79.0671 140.692 79.5777C141.238 80.0807 141.898 80.4642 142.655 80.7382C143.419 81.0121 144.331 81.1714 145.404 81.2212C145.827 81.2411 146.213 81.2411 146.565 81.2088C146.913 81.1863 147.274 81.1291 147.64 81.0344V79.3609C146.913 79.4531 146.268 79.4033 145.703 79.2041C145.13 79.0073 144.627 78.706 144.189 78.3025C143.753 77.9016 143.37 77.4359 143.033 76.908C142.705 76.3725 142.413 75.8221 142.164 75.2494C141.915 74.6716 141.691 74.1138 141.499 73.5734C141.308 73.038 141.133 72.5549 140.971 72.1316C140.655 71.3048 140.282 70.5228 139.853 69.7782C139.432 69.036 138.917 68.3586 138.322 67.756C137.719 67.1459 136.997 66.6427 136.152 66.2343C135.308 65.8234 134.31 65.5445 133.149 65.3901V65.1661C133.602 65.0416 134.048 64.8373 134.501 64.5634C134.95 64.2845 135.383 63.9681 135.806 63.607C136.222 63.2559 136.601 62.8824 136.954 62.5014C137.303 62.1229 137.599 61.7692 137.841 61.4404C138.197 60.9374 138.533 60.4667 138.842 60.026C139.153 59.5852 139.49 59.2315 139.836 58.9576C140.189 58.6836 140.605 58.5417 141.083 58.5342C141.313 58.5218 141.562 58.5716 141.823 58.6712C142.089 58.7783 142.326 58.9825 142.543 59.2988C142.754 59.6151 142.904 60.0932 142.984 60.7332H144.251V54.9582C143.84 54.7988 143.442 54.6867 143.058 54.6294C142.672 54.5746 142.314 54.5423 141.977 54.5497C141.133 54.5597 140.401 54.7365 139.773 55.0827C139.146 55.4238 138.606 55.8771 138.152 56.4374C137.694 57.0027 137.298 57.6053 136.962 58.2553C136.618 58.9078 136.322 59.5478 136.053 60.1754C135.886 60.5589 135.687 60.9747 135.453 61.4155C135.216 61.8588 134.925 62.2921 134.571 62.713C134.223 63.1438 133.789 63.5199 133.266 63.8511C132.746 64.1848 132.118 64.4339 131.374 64.6082C130.634 64.7751 129.765 64.8248 128.754 64.7551V59.1319C128.746 58.8281 128.771 58.5094 128.821 58.1881C128.863 57.8569 128.963 57.5555 129.112 57.2567C129.254 56.9628 129.478 56.7163 129.777 56.512C130.069 56.3078 130.46 56.1759 130.95 56.1137V54.8486H123.352ZM162.319 54.5497C160.877 54.5547 159.549 54.7415 158.337 55.1026C157.126 55.4686 156.028 55.9766 155.047 56.6216C154.066 57.2741 153.209 58.0262 152.464 58.8829C151.72 59.7396 151.097 60.671 150.601 61.6646C150.098 62.6583 149.725 63.6818 149.471 64.7378C149.222 65.7937 149.092 66.842 149.092 67.8855C149.092 68.9289 149.222 69.9798 149.471 71.0332C149.725 72.0891 150.098 73.1152 150.601 74.1063C151.097 75.1 151.72 76.0264 152.464 76.8881C153.209 77.7447 154.066 78.4969 155.047 79.1493C156.028 79.7943 157.126 80.3048 158.337 80.6634C159.549 81.0295 160.877 81.2162 162.319 81.2212C163.758 81.2162 165.085 81.0295 166.298 80.6634C167.513 80.3048 168.607 79.7943 169.588 79.1493C170.569 78.4969 171.433 77.7447 172.17 76.8881C172.915 76.0264 173.535 75.1 174.033 74.1063C174.536 73.1152 174.91 72.0891 175.164 71.0332C175.418 69.9798 175.542 68.9289 175.542 67.8855C175.542 66.842 175.418 65.7937 175.164 64.7378C174.91 63.6818 174.536 62.6583 174.033 61.6646C173.535 60.671 172.915 59.7396 172.17 58.8829C171.433 58.0262 170.569 57.2741 169.588 56.6216C168.607 55.9766 167.513 55.4686 166.298 55.1026C165.085 54.7415 163.758 54.5547 162.319 54.5497ZM162.319 56.0015C163.616 56.0015 164.831 56.263 165.967 56.7835C167.112 57.3065 168.124 58.0711 168.998 59.0822C169.874 60.0883 170.557 61.3284 171.06 62.8077C171.555 64.2795 171.809 65.9729 171.817 67.8855C171.809 69.7981 171.555 71.4865 171.06 72.9657C170.557 74.435 169.874 75.6827 168.998 76.6888C168.124 77.6999 167.112 78.4645 165.967 78.9875C164.831 79.5079 163.616 79.7693 162.319 79.7693C161.026 79.7693 159.803 79.5079 158.665 78.9875C157.525 78.4645 156.519 77.6999 155.637 76.6888C154.76 75.6827 154.078 74.435 153.582 72.9657C153.079 71.4865 152.825 69.7981 152.818 67.8855C152.825 65.9729 153.079 64.2795 153.582 62.8077C154.078 61.3284 154.76 60.0883 155.637 59.0822C156.519 58.0711 157.525 57.3065 158.665 56.7835C159.803 56.263 161.026 56.0015 162.319 56.0015ZM185.043 54.5497V55.8148C185.656 55.8522 186.129 55.9518 186.457 56.1187C186.786 56.2806 187.015 56.5046 187.14 56.7785C187.264 57.05 187.319 57.3811 187.314 57.7522C187.319 57.939 187.289 58.2429 187.227 58.6613C187.172 59.0747 187.053 59.6575 186.886 60.412C186.716 61.1616 186.47 62.1377 186.154 63.3281C185.83 64.526 185.407 65.9903 184.894 67.7385C184.712 68.3337 184.512 68.9912 184.296 69.706C184.072 70.4257 183.838 71.1577 183.581 71.9098C183.322 72.6594 183.048 73.3792 182.757 74.0765C182.458 74.7713 182.149 75.3914 181.82 75.9443C181.489 76.4972 181.148 76.9379 180.784 77.2617C180.416 77.5829 180.037 77.7522 179.639 77.7572C179.489 77.7522 179.343 77.7274 179.193 77.6701C179.044 77.6153 178.894 77.558 178.745 77.4957C178.12 77.2367 177.535 77.1246 177.007 77.162C176.479 77.1993 176.058 77.3861 175.741 77.7198C175.418 78.056 175.251 78.5392 175.243 79.1743C175.251 79.62 175.375 79.9985 175.617 80.3048C175.859 80.6012 176.182 80.8303 176.586 80.9871C176.989 81.1415 177.437 81.2212 177.928 81.2212C178.827 81.2162 179.621 81.012 180.316 80.6061C181.006 80.2101 181.619 79.6648 182.162 78.9625C182.695 78.2603 183.173 77.4533 183.596 76.5468C184.017 75.6403 184.4 74.6717 184.757 73.6482C185.11 72.6172 185.459 71.5787 185.788 70.5303C186.178 69.3075 186.507 68.2516 186.766 67.3526C187.028 66.4511 187.247 65.6691 187.414 64.9917C187.586 64.3218 187.73 63.7191 187.85 63.1787C187.967 62.6408 188.084 62.1179 188.196 61.6073C188.3 61.1043 188.425 60.5713 188.567 60.0135C188.711 59.4482 188.89 58.8081 189.102 58.0884H189.214L196.591 80.925H201.731V79.6573C201.086 79.6947 200.57 79.5827 200.197 79.3162C199.823 79.0498 199.527 78.6886 199.315 78.2354C199.106 77.7771 198.912 77.2865 198.75 76.7535L191.523 54.5497H185.043ZM216.147 54.5497H215.403C215.223 54.754 214.987 54.9656 214.695 55.1748C214.404 55.3939 214.088 55.5931 213.752 55.7674C213.415 55.9467 213.099 56.0689 212.795 56.1511V57.4161C213.044 57.4112 213.254 57.4485 213.42 57.5282C213.595 57.6103 213.682 57.7597 213.689 57.9764C213.694 58.0387 213.677 58.1308 213.632 58.2603C213.59 58.3873 213.498 58.5966 213.353 58.9078L204.973 77.0125C204.886 77.2068 204.761 77.441 204.595 77.7274C204.42 78.0063 204.209 78.2927 203.96 78.5716C203.711 78.8555 203.427 79.0971 203.103 79.3038C202.779 79.503 202.421 79.62 202.03 79.6573V80.925H207.802V79.6573C207.374 79.5652 207.058 79.4332 206.846 79.2664C206.634 79.097 206.5 78.9178 206.437 78.7335C206.375 78.5467 206.343 78.3848 206.35 78.2428C206.343 78.193 206.368 78.0734 206.418 77.8817C206.475 77.6899 206.599 77.3787 206.796 76.9379L208.25 73.7701H221.213L222.704 77.1247C222.816 77.3862 222.904 77.6153 222.961 77.807C223.016 77.9938 223.041 78.1307 223.041 78.2054C223.046 78.4918 223.021 78.7259 222.966 78.9177C222.909 79.1119 222.787 79.2738 222.592 79.3909C222.401 79.5079 222.102 79.5951 221.698 79.6573V80.925H229V79.6573C228.552 79.6274 228.168 79.4905 227.827 79.2465C227.491 79.0074 227.194 78.6836 226.933 78.2802C226.667 77.8768 226.43 77.416 226.208 76.9005L216.147 54.5497ZM220.545 72.3182H208.92L214.621 60.0633H215.029L220.545 72.3182Z" fill="#277525"/>
</g>
</g>
</g>
</g>
</svg>
